<?xml version="1.0" encoding="utf-8"?>
<!-- Generator: Adobe Illustrator 24.0.1, SVG Export Plug-In . SVG Version: 6.00 Build 0)  -->
<svg version="1.1" id="Layer_1" xmlns="http://www.w3.org/2000/svg" xmlns:xlink="http://www.w3.org/1999/xlink" x="0px" y="0px"
	 viewBox="0 0 448 512" style="enable-background:new 0 0 448 512;" xml:space="preserve">
<style type="text/css">
	.st0{fill:#FFFFF0;}
</style>
<path class="st0" d="M439.2,128.3c-30-53.7-112.3-39.5-122.5-37.9C296.5,37.1,265.3,0,224,0s-72.4,37.1-92.7,90.3
	c-10.3-1.6-92.6-15.7-122.5,38c-18.9,34-6.4,80.5,29.7,127.7C2.4,303.2-10.2,349.7,8.8,383.7c30.5,54.6,114.8,39,122.5,37.8
	c20.3,53.3,51.4,90.5,92.8,90.5s72.5-37.2,92.8-90.5c7.8,1.2,92,16.8,122.5-37.8c19-34,6.4-80.5-29.7-127.7
	C445.6,208.8,458.2,162.3,439.2,128.3z M50.8,360.3c-7.4-13.2-0.4-38.3,20.5-67.8c11.2,10.9,23.5,21.6,36.9,32.1
	c2.2,17.3,5.2,34.1,9,50.3C96.7,377.3,60.8,378.3,50.8,360.3L50.8,360.3z M108.1,187.4c-13.4,10.5-25.8,21.2-36.9,32.1
	c-20.9-29.5-27.9-54.6-20.5-67.8c3.7-6.6,17.5-20.5,66.4-14.7C113.3,153.6,110.3,170.4,108.1,187.4L108.1,187.4z M224,48
	c14.3,0,31.7,19.3,45.8,53.5c-15,4.6-30.2,10-45.8,16.8c-15.6-6.8-30.9-12.2-45.8-16.8C192.3,67.3,209.7,48,224,48z M224,464
	c-14.3,0-31.6-19.2-45.8-53.4c14.9-4.6,30.2-10.3,45.8-17c15.5,6.7,30.8,12.4,45.8,17C255.6,444.8,238.3,464,224,464z M294.4,298.7
	c-30,21.4-51.8,32.9-70.4,42c-18.6-9.1-40.4-20.6-70.4-42c-1.4-17.1-3.1-47.1,0-85.5c30-21.4,51.7-32.9,70.4-42
	c18.7,9.2,40.4,20.6,70.4,42C295.7,230.3,297.4,260.4,294.4,298.7z M397.2,360.3c-10,18-45.9,17-66.4,14.6c3.8-16.1,6.8-33,9-50.3
	c13.4-10.5,25.8-21.2,36.9-32.1C397.7,322,404.6,347.1,397.2,360.3z M376.8,219.5c-11.2-10.9-23.5-21.6-36.9-32.1
	c-2.1-16.9-5.1-33.7-9-50.3c48.9-5.8,62.7,8,66.4,14.7C404.6,164.9,397.7,190,376.8,219.5z M224,224c-17.7,0-32,14.3-32,32
	s14.3,32,32,32s32-14.3,32-32S241.7,224,224,224z"/>
</svg>
