<?xml version="1.0" encoding="utf-8"?>
<!-- Generator: Adobe Illustrator 24.0.1, SVG Export Plug-In . SVG Version: 6.00 Build 0)  -->
<svg version="1.1" id="Layer_1" xmlns="http://www.w3.org/2000/svg" xmlns:xlink="http://www.w3.org/1999/xlink" x="0px" y="0px"
	 viewBox="0 0 448 512" style="enable-background:new 0 0 448 512;" xml:space="preserve">
<path d="M107.5,101.4l56.2-37.5l-1.1-30.6l-88,61c-7,4.9-11.2,12.9-11.1,21.5L64,160c0,0,0,0,0,0H8c-4.4,0-8,3.6-8,8V184
	c0,4.4,3.6,8,8,8h56c0,0,0,0,0,0l0,1.7c0,0,0,0,0,0L96,479.9c0,0,0,0.1,0,0.1H40c-4.4,0-8,3.6-8,8V504c0,4.4,3.6,8,8,8H408
	c4.4,0,8-3.6,8-8V488c0-4.4-3.6-8-8-8h-55.8c0,0,0,0,0-0.1L384,192c0,0,0,0,0,0H440c4.4,0,8-3.6,8-8V168c0-4.4-3.6-8-8-8H96
	c0,0,0,0,0,0l0-37.1C96,114.3,100.3,106.2,107.5,101.4z M163.3,65.3C163.3,65.3,163.3,65.3,163.3,65.3c7,18,24.3,30.7,44.7,30.7
	h63.2c26.3,0,48.4-20.9,48.8-47.2C320.4,21.9,298.8,0,272,0h-64c-21.4,0-39.3,14-45.5,33.3c0,0,0,0,0,0 M208,32l63.5,0
	c8.6,0,16.1,6.6,16.5,15.2c0.4,9.2-6.9,16.8-16,16.8l-63.5,0c-8.6,0-16.1-6.6-16.5-15.2C191.6,39.6,198.9,32,208,32z M320,480H128
	c0,0,0,0,0,0l0-1.7c0,0,0,0,0,0L96,192.1c0,0,0-0.1,0-0.1h255.8c0,0,0,0,0,0.1L320,480C320,480,320,480,320,480z"/>
</svg>
