<?xml version="1.0" encoding="utf-8"?>
<!-- Generator: Adobe Illustrator 24.0.1, SVG Export Plug-In . SVG Version: 6.00 Build 0)  -->
<svg version="1.1" id="Layer_1" xmlns="http://www.w3.org/2000/svg" xmlns:xlink="http://www.w3.org/1999/xlink" x="0px" y="0px"
	 viewBox="0 0 544 512" style="enable-background:new 0 0 544 512;" xml:space="preserve">
<path d="M339.9,511.9c31.5,0,59.8-17.6,74-45c48.2,1.2,87.2-39.3,84.9-87.4c27.9-16.2,45.3-45.8,45.3-78.5
	c-0.1-27.6-13-53.6-34.5-70.7h0c17.5-54.5-20.1-93.2-41.1-105.3c2.7-37.7-25.9-74.3-66.7-79.4C390,18.2,362.8,0,332.2,0 M332.2,32
	c30.7,0,39.9,22.5,45.8,45.5l12.7-0.3h0.4c25.9,0,45.5,19.7,45.5,43.8c0,6.2-1.7,11.9-4.2,22.8c27.5,11.2,49.4,25.8,49.4,59.7
	c0,10-0.2,13.4-12.8,39.2c19.9,11.4,42.9,24.5,42.9,58.3c0,35.3-23.4,49-48.9,59.5h0c2.8,13.8,3.7,16.8,3.7,23
	c0,28.4-23.2,51.5-51.7,51.5c-3.9,0-5.9-0.5-22.2-3.2c-8.9,26.4-21.2,48.2-53.1,48.2"/>
</svg>
