<svg xmlns="http://www.w3.org/2000/svg" viewBox="0 0 512 384"><title>chart-line-try</title><path d="M500.43,406.81h-472v-344a8,8,0,0,0-8-8h-16a8,8,0,0,0-8,8v360a16,16,0,0,0,16,16h488a8,8,0,0,0,8-8v-16A8,8,0,0,0,500.43,406.81Z" transform="translate(3.57 -54.81)"/><path d="M236.78,374.64v-30.3c-17.4-.3-35.4-5.7-45.9-13.2l7.2-20.1a80,80,0,0,0,43.2,12.9c21.3,0,35.71-12.3,35.71-29.4,0-16.5-11.7-26.7-33.91-35.7-30.6-12-49.5-25.8-49.5-51.9,0-24.9,17.7-43.8,45.3-48.3v-30.3h18.6v29.1c18,.6,30.31,5.4,39,10.5l-7.5,19.8a72.59,72.59,0,0,0-37.81-10.2c-23.1,0-31.8,13.8-31.8,25.8,0,15.6,11.1,23.4,37.2,34.2,30.91,12.6,46.5,28.2,46.5,54.9,0,23.7-16.5,45.9-47.4,51v31.2Z" transform="translate(3.57 -54.81)"/><path d="M288,187.21c4.38,3.88,14.65,8,19,4.1l65.48-58,30.83,27.31a17.81,17.81,0,0,0,11.91,4.44c8.73,0,17.12-6,17.12-15.09V75.85c0-5.54-5.08-10-11.33-10H337.4c-15.15,0-22.73,16.23-12,25.72l31.3,27.73-61.28,48" transform="translate(3.57 -54.81)"/><path d="M199.06,311.74l-71.14-54.33c-7-5.35-9.37-6-14.74.95L39.07,349.13,37.35,351c-2.68,3.51-3.5,5.59,0,8.27l10.23,7.81c3.51,2.68,8.72-2.42,11.4-5.93l64.78-80.81,68.11,51.47" transform="translate(3.57 -54.81)"/></svg>