<?xml version="1.0" encoding="utf-8"?>
<!-- Generator: Adobe Illustrator 24.0.1, SVG Export Plug-In . SVG Version: 6.00 Build 0)  -->
<svg version="1.1" id="Layer_1" xmlns="http://www.w3.org/2000/svg" xmlns:xlink="http://www.w3.org/1999/xlink" x="0px" y="0px"
	 viewBox="0 0 512 384" style="enable-background:new 0 0 512 384;" xml:space="preserve">
<style type="text/css">
	.st0{font-family:'MyriadPro-Regular';}
	.st1{font-size:350px;}
	.st2{fill:none;}
</style>
<title>chart-line</title>
<path d="M504,352H32V8c0-4.4-3.6-8-8-8H8C3.6,0,0,3.6,0,8v360c0,8.8,7.2,16,16,16h488c4.4,0,8-3.6,8-8v-16
	C512,355.6,508.4,352,504,352z"/>
<path d="M240.4,319.8v-30.3c-17.4-0.3-35.4-5.7-45.9-13.2l7.2-20.1c12.9,8.4,27.9,12.8,43.2,12.9c21.3,0,35.7-12.3,35.7-29.4
	c0-16.5-11.7-26.7-33.9-35.7c-30.6-12-49.5-25.8-49.5-51.9c0-24.9,17.7-43.8,45.3-48.3V73.5H261v29.1c18,0.6,30.3,5.4,39,10.5
	l-7.5,19.8c-11.4-6.8-24.5-10.3-37.8-10.2c-23.1,0-31.8,13.8-31.8,25.8c0,15.6,11.1,23.4,37.2,34.2c30.9,12.6,46.5,28.2,46.5,54.9
	c0,23.7-16.5,45.9-47.4,51v31.2H240.4z"/>
<path d="M291.6,132.4c4.4,3.9,14.6,8,19,4.1l65.5-58l30.8,27.3c3.3,2.9,7.5,4.5,11.9,4.4c8.7,0,17.1-6,17.1-15.1V21
	c0-5.5-5.1-10-11.3-10H341c-15.1,0-22.7,16.2-12,25.7l31.3,27.7l-61.3,48"/>
<path d="M202.6,256.9l-71.1-54.3c-7-5.4-9.4-6-14.7,1l-74.1,90.8l-1.7,1.9c-2.7,3.5-3.5,5.6,0,8.3l10.2,7.8
	c3.5,2.7,8.7-2.4,11.4-5.9l64.8-80.8l68.1,51.5"/>
<text transform="matrix(1 0 0 1 383 207)" class="st0 st1">₹</text>
<polygon class="st2" points="385,201 379,201 379,201 385,201 "/>
</svg>
