<?xml version="1.0" encoding="utf-8"?>
<!-- Generator: Adobe Illustrator 24.0.1, SVG Export Plug-In . SVG Version: 6.00 Build 0)  -->
<svg version="1.1" id="Layer_1" xmlns="http://www.w3.org/2000/svg" xmlns:xlink="http://www.w3.org/1999/xlink" x="0px" y="0px"
	 viewBox="0 0 140 120" style="enable-background:new 0 0 140 120;" xml:space="preserve">
<style type="text/css">
	.st0{fill:#FEE6BA;}
</style>
<title>Elytra</title>
<path class="st0" d="M30,5v5H10v10H0v60h10v20h10v20h20v-10h10v-10h10V20h20v80h10v10h10v10h20v-20h10V80h10V20h-10V10h-20V0H30V5z
	 M50,30v20H40v10H20v10H10V60h10V50H10V30h10V20h20V10h10V30z M100,15v5h20v10h10v20h-10v10h10v10h-10V60h-20V50H90V10h10V15z"/>
</svg>
