<?xml version="1.0" encoding="utf-8"?>
<!-- Generator: Adobe Illustrator 24.0.1, SVG Export Plug-In . SVG Version: 6.00 Build 0)  -->
<svg version="1.1" id="Layer_1" xmlns="http://www.w3.org/2000/svg" xmlns:xlink="http://www.w3.org/1999/xlink" x="0px" y="0px"
	 viewBox="0 0 640 512" style="enable-background:new 0 0 640 512;" xml:space="preserve">
<path d="M41.8,334.1c-3.8,2.2-5.1,7.1-2.9,10.9c0,0,0,0,0,0l8,13.9c2.2,3.8,7.1,5.1,10.9,2.9c0,0,0,0,0,0l99.2-57.3
	c-6.7-8.5-12.8-17.3-18-26.5L41.8,334.1z M112.3,176H8c-4.4,0-8,3.6-8,8v16c0,4.4,3.6,8,8,8h106.5
	C112.9,197.5,112.3,186.8,112.3,176z M41.8,49.8L127,99c4-10,8.7-19.6,14.2-28.8L57.8,22.1c-3.8-2.2-8.7-0.9-10.9,2.9c0,0,0,0,0,0
	l-8,13.9C36.7,42.8,38,47.6,41.8,49.8z M320,64c-61.8,0-112,50.3-112,112c0,8.8,7.2,16,16,16s16-7.2,16-16c0-44.1,35.9-80,80-80
	c8.8,0,16-7.2,16-16C336,71.2,328.8,64,320,64z M320,0C217.1,0,143.9,83.5,144,176.2c0.1,44.3,16.5,84.7,43.6,115.5
	c25.6,29.3,50.3,76.9,52.4,92.2l0.1,75.2c0,3.1,0.9,6.2,2.7,8.8l24.5,36.8c3,4.5,8,7.1,13.3,7.1h78.9c5.4,0,10.4-2.7,13.3-7.1
	l24.5-36.8c1.7-2.6,2.7-5.7,2.7-8.8L400,384 M367.9,454.3L350.9,480h-61.7l-17.1-25.7l0-6.3h95.9V454.3z M368,416h-96l-0.1-32H368
	L368,416z M391.8,351.1L262.2,352c-14.3-33.2-36.6-65.4-50.6-81.3c-23.1-26.4-35.5-59.8-35.6-94.7c-0.2-77,66.3-147,149.8-147"/>
<path d="M398,377.5c22.5,0,31.8-11.6,42-31.2c34.5,0.9,62.4-28.1,60.8-62.6c20-11.6,32.4-32.8,32.4-56.2
	c-0.1-19.8-9.3-38.4-24.7-50.6h0c12.5-39-14.4-66.7-29.4-75.4c1.9-27-18.5-53.2-47.7-56.8C422.9,25.1,341.5,0,319.6,0 M325.9,29
	c22,0,84.2,22.1,88.4,38.5l9.1-0.2h0.3c18.5,0,32.6,14.1,32.6,31.3c0,4.4-1.2,8.5-3,16.3c19.7,8,35.4,18.5,35.4,42.7
	c0,7.2-0.1,9.6-9.2,28.1c14.2,8.2,30.7,17.5,30.7,41.7c0,25.3-16.7,35.1-35,42.6h0c2,9.9,2.6,12,2.6,16.5c0,20.3-16.6,36.9-37,36.9
	c-2.8,0-4.2-0.4-15.9-2.3c-6.4,18.9-10.3,30-33.2,30"/>
</svg>
