<?xml version="1.0" standalone="no"?>
<!DOCTYPE svg PUBLIC "-//W3C//DTD SVG 20010904//EN"
 "http://www.w3.org/TR/2001/REC-SVG-20010904/DTD/svg10.dtd">
<svg version="1.0" xmlns="http://www.w3.org/2000/svg"
 width="4500.000000pt" height="4500.000000pt" viewBox="0 0 4500.000000 4500.000000"
 preserveAspectRatio="xMidYMid meet">
<metadata>
Created by potrace 1.16, written by Peter Selinger 2001-2019
</metadata>
<g transform="translate(0.000000,4500.000000) scale(0.100000,-0.100000)"
fill="#000000" stroke="none">
<path d="M22058 42589 c-125 -4 -285 -12 -356 -18 l-130 -11 -108 -56 c-314
-164 -537 -328 -765 -561 -135 -137 -217 -239 -323 -400 -197 -299 -342 -602
-533 -1113 -36 -96 -98 -259 -139 -362 -152 -384 -187 -567 -151 -773 31 -175
127 -234 312 -190 229 55 397 358 564 1020 78 310 128 470 254 810 254 686
698 1211 1262 1493 92 46 332 137 387 147 47 9 40 26 -10 23 -20 0 -139 -5
-264 -9z"/>
<path d="M23329 42526 c-2 -2 -81 -18 -176 -35 -163 -29 -391 -92 -533 -148
-111 -43 -341 -157 -430 -213 -264 -165 -479 -380 -645 -645 -95 -153 -235
-457 -315 -690 -16 -44 -56 -156 -90 -250 -34 -93 -74 -206 -90 -250 -16 -44
-52 -141 -80 -215 -100 -265 -136 -402 -146 -555 -11 -169 23 -283 99 -333 32
-21 55 -28 111 -30 76 -4 179 17 225 45 146 91 261 267 356 544 43 127 68 214
154 549 39 153 75 261 166 495 133 347 265 590 433 799 81 101 263 287 362
370 250 210 560 357 870 411 111 19 397 39 478 32 152 -12 19 14 -389 77 -277
43 -350 52 -360 42z"/>
<path d="M20620 42424 c-118 -24 -269 -59 -335 -76 -119 -31 -121 -32 -259
-132 -227 -165 -486 -405 -629 -584 -236 -294 -417 -653 -632 -1252 -36 -102
-74 -207 -85 -235 -87 -224 -179 -519 -206 -660 -19 -103 -22 -276 -5 -320 44
-111 218 -161 349 -100 187 87 318 382 446 1003 68 329 98 428 233 777 157
406 356 779 539 1008 188 237 458 445 737 567 53 24 97 44 97 46 0 8 -45 1
-250 -42z"/>
<path d="M24795 42200 c-438 -13 -816 -89 -1155 -233 -136 -57 -259 -127 -394
-224 -194 -139 -306 -257 -432 -455 -125 -196 -195 -359 -369 -863 -52 -148
-119 -340 -149 -425 -109 -303 -150 -506 -128 -646 22 -140 75 -202 182 -211
240 -22 415 151 539 537 23 69 70 249 105 400 128 542 301 955 524 1253 96
128 341 373 448 450 224 158 448 250 739 302 115 21 436 30 585 17 63 -6 116
-9 118 -7 2 2 -22 11 -54 21 -33 9 -117 34 -189 55 -71 22 -132 38 -135 37 -3
-1 -109 -4 -235 -8z"/>
<path d="M19315 42037 c-176 -74 -148 -57 -310 -177 -226 -168 -405 -342 -597
-582 -290 -359 -518 -825 -739 -1502 -112 -344 -158 -547 -159 -697 0 -63 25
-141 54 -168 23 -21 32 -23 91 -19 57 5 72 11 119 47 149 112 240 287 337 649
116 432 263 927 333 1123 51 143 77 204 151 349 221 436 431 696 766 946 36
27 79 59 95 71 16 12 25 22 19 22 -5 0 -77 -28 -160 -62z"/>
<path d="M18105 41373 c-201 -151 -535 -447 -535 -474 0 -5 -19 -39 -42 -76
-282 -460 -494 -956 -624 -1463 -88 -340 -90 -588 -6 -614 11 -4 40 2 66 13
104 45 146 159 366 991 147 555 186 668 313 905 195 363 275 481 461 673 65
67 115 122 110 121 -5 0 -54 -34 -109 -76z"/>
<path d="M29146 39331 c-6 -10 49 -71 64 -71 5 0 14 -16 21 -35 9 -23 16 -31
21 -22 6 9 8 9 8 0 0 -7 7 -13 16 -13 10 0 14 -6 11 -14 -3 -8 1 -17 10 -20 8
-4 13 -13 10 -21 -6 -15 73 -105 92 -105 6 0 15 -9 21 -20 6 -11 16 -17 22
-14 7 4 8 3 4 -5 -4 -6 6 -28 23 -50 17 -21 31 -44 31 -51 0 -10 3 -10 14 0
12 9 16 5 22 -25 3 -20 9 -33 12 -30 9 8 52 -37 52 -54 0 -14 -1 -14 -10 -1
-6 9 -10 10 -10 3 0 -20 18 -24 29 -6 9 16 10 16 11 2 0 -9 7 -22 15 -29 9 -7
14 -19 11 -27 -6 -15 6 -17 20 -3 6 6 10 3 11 -11 1 -11 18 -36 37 -54 20 -19
36 -38 36 -43 0 -6 16 -24 35 -41 19 -17 35 -35 35 -40 0 -5 15 -26 34 -45 18
-20 31 -38 28 -41 -3 -3 2 -5 10 -5 9 0 19 -6 22 -12 3 -7 14 -25 24 -39 72
-108 92 -140 92 -147 0 -4 16 -22 35 -41 19 -18 33 -36 32 -41 -1 -4 19 -33
45 -66 78 -99 96 -116 101 -102 4 9 6 7 6 -4 1 -9 9 -19 19 -22 10 -3 26 -19
35 -36 10 -16 21 -29 25 -27 4 1 9 -2 10 -8 2 -5 21 -27 43 -48 21 -21 39 -43
39 -48 0 -5 7 -9 15 -9 8 0 15 -7 15 -15 0 -8 5 -15 10 -15 6 0 10 -6 10 -14
0 -8 5 -18 12 -22 7 -5 8 -2 3 7 -4 8 6 1 22 -16 16 -16 28 -33 26 -37 -2 -5
1 -8 6 -8 6 0 11 -6 11 -14 0 -8 5 -18 12 -22 7 -4 8 -3 4 4 -4 7 -2 12 3 12
6 0 11 -11 11 -25 0 -19 5 -25 21 -25 11 0 18 -4 15 -8 -2 -4 -1 -14 5 -22 7
-12 9 -12 9 3 0 10 4 16 10 12 5 -3 7 -12 3 -21 -3 -8 -2 -14 3 -13 22 4 35
-2 32 -13 -5 -14 15 -38 30 -38 5 0 13 -11 16 -25 4 -16 11 -22 21 -19 11 4
13 2 9 -9 -7 -20 13 -32 32 -16 12 10 13 9 7 -6 -5 -15 -3 -17 11 -12 11 5 15
3 10 -5 -5 -8 -2 -9 9 -5 11 4 17 1 17 -8 0 -7 4 -17 10 -20 6 -3 7 1 4 9 -7
17 11 22 21 7 3 -5 19 -12 35 -16 17 -4 30 -13 30 -20 0 -9 6 -12 16 -8 13 5
13 7 2 14 -9 6 -7 9 8 9 28 0 36 -10 23 -27 -7 -8 -8 -13 -1 -13 19 0 23 32 6
45 -10 6 -14 17 -11 22 4 6 -11 30 -33 54 -21 24 -37 45 -35 48 2 2 -6 12 -18
22 -19 16 -20 20 -7 29 10 6 11 10 3 10 -7 0 -14 10 -14 23 -1 18 -3 16 -9 -8
l-8 -30 -1 28 c0 15 -5 27 -11 27 -5 0 -10 7 -10 16 0 8 -4 13 -9 9 -11 -6
-30 49 -29 87 1 35 -20 61 -44 55 -14 -4 -20 2 -25 24 -3 16 -9 29 -14 29 -5
0 -9 7 -9 15 0 8 -9 19 -20 25 -11 6 -20 17 -20 26 0 8 -6 17 -14 20 -9 3 -12
13 -9 22 4 9 3 14 -2 10 -11 -10 -35 17 -35 40 0 13 -9 22 -26 26 -17 5 -24
12 -20 21 3 9 -1 15 -9 15 -9 0 -15 9 -15 23 0 29 -9 40 -43 55 -17 7 -27 18
-24 25 6 16 -12 41 -35 50 -17 6 -81 100 -84 122 0 5 -2 16 -2 23 -1 6 -11 12
-22 12 -11 0 -20 5 -20 10 0 6 -7 10 -15 10 -8 0 -15 7 -15 15 0 8 -4 15 -10
15 -5 0 -10 9 -10 19 0 11 -5 23 -12 27 -7 5 -8 3 -3 -6 5 -8 3 -11 -6 -8 -8
3 -13 15 -12 26 3 22 -28 39 -48 26 -8 -4 -9 1 -4 16 6 20 5 21 -14 10 -12 -6
-21 -7 -20 -3 4 24 -3 43 -16 43 -8 0 -15 8 -15 17 0 9 -3 14 -6 10 -10 -10
-58 19 -79 47 -10 13 -23 22 -29 19 -5 -4 -7 1 -3 10 3 10 2 17 -3 17 -14 0
-65 51 -62 62 1 5 -2 7 -8 3 -5 -3 -24 14 -42 39 -23 33 -34 42 -41 33 -6 -9
-10 -9 -13 -1 -3 7 -14 10 -24 7 -25 -7 -26 12 -2 27 15 10 14 11 -5 7 -15 -3
-23 0 -24 9 -1 8 -2 18 -3 23 -1 11 -62 61 -74 61 -6 0 -12 -8 -14 -17 -2 -12
-14 -2 -43 35 -21 29 -43 52 -47 52 -4 0 -4 8 -1 17 5 12 2 15 -9 10 -11 -4
-18 2 -22 19 -4 14 -11 22 -17 19 -7 -5 -6 -12 2 -21 7 -8 7 -14 1 -14 -5 0
-12 7 -16 15 -3 8 -14 15 -25 15 -11 0 -22 9 -26 19 -3 11 -13 25 -22 33 -14
11 -15 10 -8 -12 7 -24 7 -24 -11 -5 -11 10 -19 23 -20 29 0 6 -6 24 -13 41
-9 20 -15 25 -20 17 -6 -9 -12 -4 -23 19 -12 24 -18 28 -24 17 -8 -12 -13 -12
-34 0 l-25 14 26 -6 c19 -4 29 -1 33 10 4 12 1 14 -14 9 -13 -4 -28 2 -45 19
-32 32 -38 33 -31 4 l6 -23 -11 23 c-7 12 -17 22 -23 22 -6 0 -17 9 -24 20
-13 21 -37 26 -46 11z"/>
<path d="M16620 38538 c-1 -13 -12 -77 -26 -143 -14 -66 -40 -201 -59 -300
-19 -99 -40 -202 -47 -230 -56 -221 44 -352 400 -525 67 -33 122 -66 122 -72
0 -7 -5 -31 -10 -53 -5 -22 -8 -41 -6 -42 1 -1 87 13 192 31 104 19 302 48
439 65 138 17 264 33 280 35 174 24 369 38 482 34 l132 -4 7 31 c3 16 27 125
54 240 26 116 60 267 75 338 16 70 33 134 39 141 8 10 57 18 171 25 202 14
524 31 592 31 l51 0 -14 -62 c-20 -85 -140 -615 -149 -655 -6 -31 -5 -33 22
-33 15 0 66 5 113 10 423 48 811 70 1270 70 858 0 1509 -30 2050 -96 401 -48
553 -80 965 -199 127 -37 268 -77 315 -90 47 -13 117 -35 155 -50 39 -15 153
-58 255 -97 331 -125 508 -197 770 -313 58 -26 150 -66 205 -90 55 -24 195
-84 310 -135 116 -50 251 -109 300 -131 50 -21 180 -83 289 -139 175 -88 206
-100 250 -100 122 1 226 92 294 260 73 178 73 371 0 513 -25 49 -90 121 -144
158 -39 27 -434 227 -624 317 -47 22 -133 63 -192 91 -427 202 -767 341 -1203
492 -494 172 -1072 331 -1370 379 -189 30 -596 78 -755 90 -80 6 -176 13 -215
15 -64 5 -202 12 -610 33 -363 18 -1873 2 -2190 -23 -28 -2 -176 -11 -330 -20
-154 -8 -298 -18 -320 -20 -22 -3 -114 -10 -205 -15 -176 -11 -302 -21 -550
-46 -345 -34 -433 -45 -889 -120 -117 -19 -216 -33 -219 -30 -3 4 0 6 8 6 10
0 10 3 -1 16 -10 13 -10 17 2 25 11 7 11 11 1 17 -7 5 -14 21 -16 35 -1 15 -5
30 -9 33 -3 3 -2 17 3 29 5 14 5 25 0 27 -6 2 -13 30 -16 64 -5 46 -11 64 -27
73 -17 11 -19 11 -13 -4 4 -11 2 -15 -6 -12 -7 2 -12 12 -12 21 2 20 -15 21
-22 1 -4 -8 -10 -12 -16 -9 -5 3 -5 11 2 19 8 9 8 15 0 20 -5 3 -10 0 -10 -7
0 -9 -3 -9 -10 2 -9 13 -11 13 -20 0 -8 -13 -10 -13 -10 2 0 11 -5 15 -15 12
-9 -4 -15 0 -15 7 0 12 -2 12 -9 0 -5 -8 -11 -9 -15 -3 -3 6 -15 8 -26 5 -12
-3 -20 0 -20 6 0 8 -5 9 -16 3 -17 -10 -74 6 -74 20 0 4 -5 8 -11 8 -5 0 -7
-4 -4 -10 3 -5 2 -10 -4 -10 -6 0 -13 11 -17 23 -4 19 -11 23 -30 19 -15 -3
-23 -10 -20 -18 3 -7 -1 -17 -8 -23 -9 -8 -11 -2 -8 24 2 19 1 35 -2 35 -3 0
-6 -10 -6 -22z"/>
<path d="M20841 37318 c-17 -18 -31 -36 -31 -40 0 -5 -19 -27 -41 -50 -23 -24
-45 -53 -50 -65 -5 -13 -12 -22 -16 -21 -10 4 -53 -38 -53 -50 0 -18 -32 -72
-40 -67 -8 5 -25 -23 -22 -37 1 -5 -2 -8 -8 -8 -5 0 -10 -6 -10 -12 0 -7 -7
-26 -15 -42 -9 -16 -14 -35 -11 -42 2 -6 -1 -17 -7 -23 -8 -8 -6 -11 9 -12 10
-1 -1 -5 -26 -10 -25 -4 -187 -8 -360 -9 -392 -1 -1272 -27 -1510 -44 -99 -8
-232 -15 -365 -21 -288 -13 -857 -65 -1152 -105 -163 -22 -195 -24 -174 -11 7
5 11 13 7 19 -3 6 -1 12 4 14 6 2 16 36 22 77 7 51 14 69 20 59 7 -10 8 -9 4
5 -3 9 -1 29 4 42 5 14 11 40 12 58 1 18 5 37 8 42 4 6 8 18 8 28 1 9 2 28 3
42 1 14 6 28 10 31 5 3 7 10 4 15 -4 5 0 9 7 9 9 0 9 3 -2 10 -12 8 -10 10 9
10 13 0 22 2 19 5 -6 6 -182 -24 -294 -50 -187 -43 -449 -138 -502 -183 -28
-24 -36 -41 -61 -142 -16 -63 -41 -173 -56 -245 -15 -71 -32 -139 -38 -150
-17 -32 -8 -125 16 -174 45 -93 163 -178 396 -286 79 -37 117 -60 119 -72 2
-10 -4 -47 -12 -81 -9 -41 -11 -62 -4 -62 6 0 63 9 127 20 166 28 329 48 791
97 102 11 246 18 378 18 205 0 213 1 218 20 2 11 15 70 29 130 80 352 126 554
133 580 l8 30 95 6 c94 6 239 13 553 25 162 7 168 6 163 -12 -27 -89 -170
-735 -164 -741 3 -3 55 0 114 6 570 58 947 70 1673 51 1102 -29 1866 -109
2405 -254 538 -144 610 -166 925 -281 85 -31 198 -72 250 -90 143 -51 584
-234 990 -410 135 -59 274 -119 310 -133 35 -14 168 -77 295 -140 216 -108
234 -115 290 -115 189 -2 345 207 370 493 14 154 -32 278 -142 381 -61 57 -95
76 -383 216 -352 172 -484 238 -456 229 16 -5 17 -4 6 9 -10 12 -9 20 4 40 9
13 19 41 22 62 3 21 11 41 18 45 8 5 7 8 -3 8 -11 0 -11 3 -1 15 6 8 9 23 5
35 -3 11 -2 20 4 20 6 0 6 11 1 30 -5 17 -9 33 -9 35 -1 3 -1 6 -2 8 -4 14
-10 48 -12 73 -1 20 -6 30 -14 27 -7 -3 -13 0 -13 5 0 6 8 13 18 15 15 4 15 5
-2 6 -12 1 -16 6 -12 16 3 8 1 15 -4 15 -5 0 -7 7 -4 15 4 8 1 22 -5 29 -10
12 -8 14 11 9 31 -7 -90 53 -237 117 -66 28 -165 72 -220 96 -55 24 -120 50
-144 59 -42 14 -45 14 -63 -4 -10 -11 -18 -25 -18 -31 0 -5 -4 -10 -10 -10 -5
0 -10 -4 -10 -9 0 -6 -11 -22 -25 -37 -14 -15 -28 -38 -31 -51 -4 -13 -10 -23
-15 -23 -4 0 -11 -17 -15 -37 -6 -31 -8 -34 -15 -18 -5 14 -8 15 -8 4 -1 -18
-49 -118 -68 -140 -7 -8 -14 -28 -15 -42 -1 -15 -3 -27 -5 -27 -1 0 -59 20
-130 44 -219 76 -757 246 -776 246 -17 0 -77 32 -73 39 3 4 10 46 16 93 11 83
11 88 -9 109 -11 13 -24 19 -28 16 -3 -4 -1 -7 6 -7 7 0 10 -4 7 -9 -3 -5 -15
-7 -27 -4 -16 4 -17 8 -7 14 10 7 9 9 -4 9 -10 0 -18 -5 -18 -11 0 -7 -10 -9
-25 -5 -17 4 -25 2 -25 -6 0 -9 -3 -9 -10 2 -8 12 -10 12 -15 -2 -5 -13 -20
-16 -73 -15 -63 2 -66 1 -72 -23 -4 -15 -9 -20 -13 -13 -4 6 -4 18 -1 27 12
31 -5 16 -22 -19 -11 -25 -22 -35 -38 -34 -17 1 -17 2 -3 6 9 2 17 11 17 19 0
8 -4 13 -9 10 -5 -4 -12 0 -14 6 -4 10 -6 10 -6 1 -1 -7 -8 -13 -16 -13 -8 0
-15 -4 -15 -10 0 -5 5 -10 10 -10 6 0 10 -5 10 -11 0 -8 -4 -8 -14 0 -9 7 -22
8 -37 2 -22 -8 -20 -9 19 -16 24 -4 41 -9 39 -12 -3 -2 -58 7 -123 21 -66 13
-162 32 -214 41 -52 9 -106 18 -120 21 -51 9 -229 34 -360 49 -74 8 -192 22
-262 31 -70 8 -205 21 -300 28 -95 8 -148 14 -118 16 30 1 48 4 40 7 -19 8
-44 33 -46 47 0 6 -2 19 -2 29 -1 9 -9 17 -17 17 -9 0 -15 9 -15 25 0 14 -4
25 -10 25 -5 0 -7 7 -4 15 4 8 1 15 -6 15 -6 0 -8 5 -5 10 4 6 -1 23 -11 38
-10 15 -17 32 -16 38 1 7 -8 14 -20 18 -18 5 -20 8 -9 15 11 7 10 11 -5 20
-11 6 -13 11 -6 11 7 0 10 5 7 10 -4 6 -11 8 -16 5 -9 -6 -11 -2 -13 37 0 14
-9 24 -20 26 -15 3 -16 6 -5 13 14 9 6 19 -26 33 -6 3 -3 10 5 16 13 11 13 11
0 8 -8 -2 -27 9 -42 24 l-27 28 37 2 c116 4 -138 18 -439 23 l-346 7 -32 -34z"/>
<path d="M31350 36781 c0 -5 5 -13 10 -16 6 -3 7 -18 4 -33 -5 -22 -3 -24 6
-12 10 12 11 11 7 -7 -3 -12 0 -24 7 -27 7 -3 6 -5 -3 -5 -10 -1 -10 -6 4 -27
12 -18 13 -29 6 -38 -8 -10 -7 -17 4 -26 11 -9 12 -17 4 -31 -8 -15 -6 -21 7
-26 16 -6 16 -7 -2 -14 -17 -7 -17 -8 -1 -8 9 -1 17 -6 17 -12 0 -5 -4 -7 -10
-4 -5 3 -10 -1 -10 -9 0 -9 6 -16 13 -16 8 0 13 -18 14 -53 1 -28 5 -63 8 -77
4 -14 6 -50 5 -80 -2 -147 0 -209 10 -215 6 -3 5 -17 -1 -33 -12 -32 -19 -122
-10 -122 9 0 5 -49 -5 -74 -6 -15 -4 -17 7 -11 12 8 12 6 0 -8 -7 -9 -11 -26
-8 -37 3 -12 1 -18 -5 -14 -7 5 -8 -5 -4 -30 5 -28 3 -38 -9 -42 -8 -3 -15
-11 -15 -16 0 -6 6 -8 14 -5 17 7 15 -15 -3 -37 -10 -12 -11 -16 -1 -16 9 0 9
-4 -1 -17 -8 -9 -15 -24 -15 -35 -1 -10 -2 -19 -4 -20 -1 -2 -4 -36 -6 -77 -2
-41 -9 -78 -14 -81 -6 -4 -10 -11 -9 -16 1 -5 0 -12 -1 -16 -1 -5 -4 -12 -5
-18 -1 -5 -4 -12 -5 -15 -1 -3 -3 -14 -4 -25 0 -12 -8 -25 -16 -30 -13 -8 -13
-10 0 -10 10 0 11 -3 3 -11 -6 -6 -9 -17 -6 -24 2 -7 -4 -15 -14 -18 -16 -4
-16 -5 2 -6 16 -1 17 -3 6 -10 -8 -5 -16 -23 -17 -40 -1 -16 -6 -35 -10 -43
-11 -17 -16 -38 -15 -67 1 -13 -7 -30 -16 -37 -12 -9 -14 -13 -5 -14 8 0 10
-5 5 -12 -8 -13 -13 -42 -14 -85 -1 -13 -5 -23 -11 -23 -5 0 -6 -4 -3 -10 3
-5 0 -10 -7 -10 -9 0 -9 -3 2 -10 13 -9 13 -11 1 -19 -9 -6 -14 -29 -15 -69
-1 -33 -3 -58 -5 -56 -2 2 -10 -1 -16 -6 -8 -7 -37 10 -96 56 -252 199 -651
466 -979 656 -52 30 -111 65 -130 76 -19 12 -64 37 -100 56 -89 48 -122 71
-113 81 5 4 0 5 -9 2 -10 -3 -17 -3 -17 1 3 20 -2 33 -11 27 -5 -3 -10 1 -10
9 0 9 8 16 18 17 16 0 16 1 -1 8 -10 4 -18 10 -18 14 1 4 1 22 1 40 0 22 -3
28 -9 18 -6 -10 -9 -2 -9 23 0 21 -3 40 -6 43 -3 4 -6 -1 -6 -11 0 -9 -5 -14
-10 -11 -6 4 -8 10 -5 15 3 5 1 11 -5 15 -5 3 -10 12 -10 18 0 7 4 6 10 -3 8
-13 10 -12 10 3 0 9 -5 17 -11 17 -6 0 -9 7 -5 15 3 9 0 15 -10 15 -8 0 -14
-6 -12 -12 3 -16 -19 -58 -41 -78 -9 -8 -22 -28 -29 -43 -9 -21 -17 -27 -30
-23 -14 5 -13 3 2 -9 34 -26 9 -17 -101 39 -166 83 -362 175 -623 294 -265
120 -318 132 -414 92 -60 -24 -142 -101 -150 -142 -41 -197 -52 -366 -31 -488
23 -133 59 -207 145 -291 67 -66 81 -74 492 -278 233 -116 466 -235 518 -264
52 -29 172 -96 265 -147 177 -97 252 -141 395 -230 47 -29 141 -86 210 -128
250 -151 385 -245 559 -391 211 -178 211 -178 170 -178 -16 0 -25 3 -19 7 8 5
6 9 -6 14 -9 3 -19 4 -22 1 -3 -3 0 -5 5 -5 12 0 12 -18 0 -37 -4 -6 -2 -15 4
-19 7 -4 9 -3 5 4 -3 6 -2 13 4 17 15 9 12 -17 -5 -38 -7 -11 -11 -25 -8 -33
3 -8 0 -14 -7 -14 -6 0 -10 -10 -9 -22 2 -13 -2 -33 -9 -45 -9 -17 -9 -22 1
-26 9 -3 9 -7 -2 -20 -7 -9 -11 -23 -8 -32 4 -8 2 -17 -4 -20 -5 -4 -7 -11 -3
-16 3 -5 2 -15 -3 -22 -5 -7 -10 -23 -11 -36 0 -13 -7 -28 -14 -33 -10 -7 -10
-11 -1 -15 10 -3 9 -11 -2 -34 -11 -21 -12 -29 -3 -29 6 0 4 -6 -6 -13 -17
-13 -16 -15 15 -40 19 -15 31 -27 27 -27 -5 0 -50 35 -100 78 -240 201 -646
476 -1096 741 -72 43 -119 77 -115 83 3 6 1 8 -5 5 -15 -10 -39 2 -39 19 0 9
6 13 16 9 11 -3 10 0 -3 10 -11 8 -15 15 -9 15 6 0 9 8 6 19 -3 10 0 22 6 25
6 4 8 18 5 32 -4 16 -2 24 7 24 9 0 10 3 4 8 -15 11 -15 42 1 42 8 0 14 10 14
26 0 14 4 23 10 19 10 -6 12 6 14 83 0 25 5 32 21 33 15 0 16 2 5 7 -18 8 -20
38 -2 34 26 -5 9 8 -50 41 -35 18 -133 72 -218 118 -85 47 -163 88 -172 92
-18 7 -31 -14 -22 -38 4 -8 1 -15 -5 -15 -6 0 -8 -11 -4 -30 4 -23 2 -30 -11
-30 -19 0 -21 -11 -3 -29 10 -10 9 -14 -5 -22 -10 -6 -18 -19 -18 -29 0 -11
-5 -20 -11 -20 -6 0 -7 -5 -2 -12 11 -19 12 -37 2 -44 -5 -3 -6 -17 -3 -31 5
-18 3 -24 -5 -19 -15 10 -14 -7 2 -23 10 -11 10 -13 0 -7 -9 5 -13 -1 -13 -19
0 -18 -4 -24 -12 -20 -7 4 -5 0 5 -8 9 -8 17 -16 17 -19 0 -2 -64 27 -142 65
-231 112 -530 251 -658 308 -102 44 -180 46 -263 5 -86 -42 -119 -93 -141
-215 -28 -164 -35 -273 -21 -364 18 -119 30 -157 73 -223 74 -115 111 -138
555 -360 374 -186 467 -235 687 -359 41 -24 127 -71 190 -105 122 -67 683
-408 810 -493 76 -51 239 -183 385 -312 l80 -71 90 18 c196 38 315 97 427 209
72 72 77 80 83 132 14 107 -64 283 -186 421 -28 32 -29 37 -19 78 14 56 13 54
56 253 20 94 38 191 40 217 3 46 2 47 -61 106 -36 33 -65 62 -65 65 0 2 29 7
64 10 89 8 218 53 290 101 77 51 157 133 204 211 32 52 37 68 37 120 -1 38 -9
81 -24 119 -25 64 -110 194 -173 265 -39 45 -45 73 -25 121 3 8 15 62 27 120
11 58 29 146 40 195 11 50 27 126 36 170 23 119 64 303 81 365 15 53 60 228
68 261 3 13 44 150 50 169 1 3 6 20 10 38 4 18 12 35 16 38 5 3 9 14 9 26 0
11 6 34 14 51 39 89 38 83 21 262 -2 22 -11 74 -21 115 -9 41 -17 83 -18 93 0
9 -1 17 -2 17 -2 0 -11 -8 -20 -17 -16 -16 -17 -16 -12 -1 4 9 1 28 -5 42 -14
30 -53 51 -61 33 -2 -7 -5 -4 -5 6 -1 12 -5 16 -13 11 -9 -5 -9 -2 1 9 12 15
11 17 -2 17 -11 0 -14 5 -10 17 4 11 3 14 -5 9 -7 -4 -12 -1 -12 8 0 22 -17
20 -24 -1 -3 -13 -4 -12 -3 4 1 12 -9 32 -24 45 -14 13 -24 29 -22 34 2 7 -10
10 -32 9 -28 -1 -35 2 -30 13 3 8 -2 23 -11 33 -9 10 -13 23 -8 31 6 10 4 10
-9 -1 -15 -12 -17 -10 -18 15 -1 20 -3 23 -6 10 -3 -10 -8 -14 -12 -9 -9 15
-51 26 -51 14z"/>
<path d="M20364 35781 c-53 -5 -61 -8 -58 -26 2 -10 -2 -25 -8 -32 -6 -7 -7
-13 -3 -13 4 0 2 -6 -4 -13 -6 -8 -9 -16 -6 -18 2 -3 0 -22 -6 -42 -5 -20 -12
-55 -14 -78 -3 -24 -10 -46 -16 -50 -8 -5 -7 -8 2 -11 11 -4 11 -9 -2 -24 -15
-18 -38 -115 -42 -176 l-2 -28 -630 0 c-346 0 -787 -5 -980 -11 -192 -6 -413
-12 -490 -14 -152 -4 -226 -8 -585 -31 -261 -16 -607 -47 -787 -69 -121 -15
-160 -17 -109 -6 16 3 31 12 34 20 3 9 0 11 -9 5 -12 -7 -12 -5 0 9 7 10 15
31 17 47 2 17 6 42 10 58 11 54 16 77 19 102 2 14 4 25 5 25 2 0 8 28 14 60 2
11 8 41 14 67 6 33 6 50 -2 59 -8 9 -7 10 7 6 9 -4 17 -2 17 4 0 12 -50 7
-190 -17 -124 -22 -228 -50 -380 -100 -197 -66 -251 -103 -264 -179 -6 -36
-45 -205 -97 -419 -26 -108 -24 -151 7 -215 36 -72 109 -124 309 -221 88 -42
172 -82 188 -88 32 -14 33 -24 7 -122 -10 -41 -18 -76 -16 -77 2 -2 45 3 97
11 113 18 373 48 679 77 155 15 304 22 480 23 l255 2 21 94 c12 52 36 158 53
235 69 306 94 410 102 419 14 15 22 15 422 23 350 6 377 5 377 -11 0 -15 -62
-295 -130 -588 -17 -70 -30 -132 -30 -138 0 -17 46 -15 584 25 382 27 1218 7
2021 -50 638 -46 1220 -129 1565 -225 152 -42 357 -97 500 -135 310 -82 1079
-368 1690 -628 58 -25 155 -66 215 -92 61 -25 218 -99 350 -163 l239 -117 76
0 c62 0 85 5 132 28 116 57 214 206 243 371 35 206 3 336 -112 451 -66 67
-101 85 -633 337 -69 33 -150 71 -180 86 -30 14 -49 27 -42 30 7 2 17 13 23
24 7 12 7 18 1 14 -6 -3 -3 18 6 46 9 29 20 54 23 56 3 1 4 13 2 25 -2 12 1
42 7 67 14 60 21 91 23 113 1 9 5 17 10 17 4 0 6 4 2 9 -3 5 -2 12 3 15 4 2 7
22 7 44 0 34 2 38 20 34 43 -9 -191 100 -410 191 -435 182 -492 203 -502 193
-4 -3 -1 -6 7 -6 9 0 10 -3 1 -14 -7 -8 -14 -33 -17 -57 -3 -24 -8 -48 -12
-53 -4 -6 -8 -20 -9 -31 -1 -11 -7 -40 -13 -65 -5 -25 -12 -62 -15 -83 -3 -21
-7 -42 -10 -47 -2 -4 -7 -25 -11 -46 -3 -20 -10 -47 -14 -60 -5 -12 -6 -25 -3
-28 12 -12 -15 -5 -207 55 -343 107 -553 171 -635 194 -84 24 -159 54 -137 55
6 0 12 12 12 26 0 14 9 62 21 107 11 45 34 148 50 231 16 82 31 152 34 156 5
8 -59 29 -273 87 -299 80 -283 77 -293 62 -4 -8 -3 -19 3 -26 8 -10 7 -13 -3
-13 -12 0 -12 -2 -1 -9 11 -7 10 -9 -3 -15 -9 -3 -13 -10 -10 -16 3 -5 -1 -20
-9 -32 -21 -29 -21 -48 0 -22 15 18 15 18 5 -2 -6 -12 -7 -25 -3 -29 4 -5 2
-5 -5 -1 -14 8 -24 -21 -28 -78 -2 -23 -5 -48 -8 -56 -13 -37 -14 -60 -5 -66
5 -3 2 -14 -8 -25 -9 -10 -13 -19 -9 -19 5 0 4 -5 -2 -11 -6 -6 -9 -18 -6 -25
6 -17 -15 -46 -28 -38 -5 3 -6 -2 -2 -11 5 -14 8 -14 15 -3 6 9 7 6 3 -9 -5
-18 -2 -23 11 -23 10 0 15 -2 13 -5 -3 -2 -52 4 -110 16 -146 28 -694 105
-879 124 -246 24 -378 42 -318 44 19 1 25 6 23 19 -1 9 2 23 7 29 6 7 8 23 4
36 -3 13 -2 27 2 31 3 4 8 19 9 34 2 26 10 67 13 67 1 0 3 24 5 54 3 30 9 57
14 61 5 3 8 18 7 33 -2 16 2 34 9 41 18 17 35 84 28 103 -5 13 -2 15 13 9 12
-4 15 -4 9 2 -10 9 -386 33 -805 52 -223 10 -461 10 -566 1z"/>
<path d="M19963 34208 c-1 -35 -16 -124 -25 -147 -5 -14 -10 -41 -10 -59 0
-17 -4 -35 -9 -38 -6 -3 -5 -11 2 -20 9 -11 9 -14 -1 -14 -8 0 -10 -3 -7 -7 4
-3 2 -12 -4 -19 -6 -7 -11 -34 -11 -59 0 -25 -3 -45 -8 -45 -5 0 -11 -18 -15
-40 -5 -27 -12 -41 -23 -42 -10 -1 6 -5 33 -8 39 -6 32 -7 -30 -4 -79 3 -857
15 -1177 18 -106 1 -168 -3 -168 -9 0 -10 17 -55 113 -310 25 -66 65 -174 90
-240 25 -66 58 -155 74 -197 33 -89 84 -156 140 -184 36 -18 68 -19 563 -20
382 0 586 -5 750 -17 124 -9 295 -21 380 -27 469 -32 968 -88 1323 -150 274
-48 358 -66 587 -126 420 -109 602 -161 860 -245 370 -121 414 -137 1015 -374
231 -91 674 -284 822 -359 182 -91 245 -111 322 -102 159 19 290 145 343 332
17 62 22 106 22 204 1 118 -1 128 -28 185 -17 35 -55 86 -91 122 -55 54 -83
72 -258 157 -109 53 -199 96 -202 96 -2 0 -52 23 -112 51 -59 28 -139 65 -178
83 -115 53 -123 57 -99 51 14 -4 24 0 28 10 4 11 2 14 -7 9 -9 -5 -9 -4 0 6 6
7 9 18 7 25 -3 7 0 33 7 56 16 56 18 65 25 117 3 23 10 42 14 42 4 0 6 10 6
23 -1 12 0 27 3 32 6 10 10 26 16 60 2 11 8 32 14 48 8 20 8 27 -2 27 -9 0 -8
3 1 9 8 4 14 12 13 16 0 9 -278 133 -468 208 -291 116 -422 167 -426 167 -3 0
-7 -12 -10 -27 -3 -16 -12 -59 -21 -98 -9 -38 -16 -82 -16 -97 0 -15 -4 -29
-9 -32 -5 -3 -11 -18 -14 -33 -29 -153 -41 -203 -52 -203 -5 -1 1 -7 15 -15
l25 -15 -30 6 c-16 4 -113 33 -215 65 -102 31 -273 83 -380 114 -107 31 -238
70 -291 86 l-97 30 13 52 c22 92 46 196 51 225 2 15 7 33 10 41 2 8 7 30 10
49 3 20 14 66 23 104 10 38 14 71 9 74 -5 3 -73 23 -151 44 -78 20 -186 50
-240 64 -61 17 -110 25 -130 22 -22 -4 -26 -3 -12 2 17 8 14 10 -19 16 -21 4
-41 5 -44 2 -3 -3 4 -6 15 -6 11 0 20 -7 20 -15 0 -8 -4 -15 -8 -15 -4 0 -6
-11 -5 -25 0 -14 6 -25 11 -25 6 0 4 -4 -3 -9 -8 -5 -15 -24 -17 -42 -7 -74
-18 -129 -25 -129 -4 0 -6 12 -4 28 4 27 4 27 -4 2 -5 -14 -8 -40 -6 -57 1
-18 -1 -33 -6 -33 -4 0 -7 -10 -6 -22 1 -13 -4 -34 -11 -48 -10 -19 -10 -26 0
-32 9 -6 9 -8 -2 -8 -7 0 -11 -6 -8 -14 3 -7 0 -19 -6 -25 -6 -6 -12 -25 -12
-41 -1 -23 4 -30 19 -30 11 0 17 -2 14 -6 -3 -3 -66 6 -139 20 -178 34 -415
72 -629 101 -96 13 -227 31 -290 40 -63 9 -151 20 -195 24 -44 5 -68 9 -54 10
23 1 26 5 24 34 -2 17 0 36 3 42 10 17 9 45 -2 45 -6 0 -2 7 8 15 15 11 17 17
7 29 -9 11 -8 17 3 29 9 8 12 23 9 36 -3 11 -1 21 5 21 6 0 8 9 5 20 -4 15 0
20 13 21 18 0 18 1 -1 9 -19 7 -19 8 -2 15 15 6 16 10 5 16 -10 7 -10 9 2 9
15 0 21 21 23 83 0 15 4 27 9 27 4 0 5 7 2 15 -4 8 0 23 7 32 12 14 12 16 0 8
-10 -5 -12 -4 -7 3 4 7 21 12 38 12 60 0 22 8 -72 15 -52 3 -108 8 -125 10
-175 22 -832 55 -1091 55 -114 0 -151 -3 -151 -12z"/>
<path d="M16355 34103 c-170 -24 -508 -107 -648 -160 -110 -41 -111 -43 -152
-238 -20 -93 -40 -183 -46 -200 -5 -16 -20 -77 -35 -134 -24 -101 -25 -106 -9
-148 10 -25 36 -60 67 -88 53 -48 224 -136 388 -200 52 -20 98 -39 101 -41 4
-2 -4 -53 -17 -114 -13 -61 -25 -116 -27 -123 -1 -7 7 -11 18 -10 236 29 375
44 485 53 151 12 225 24 299 46 47 14 65 30 253 236 112 122 305 333 431 469
125 137 227 251 227 255 0 15 -820 -28 -1175 -61 -170 -17 -205 -18 -189 -7 6
4 11 21 12 37 1 44 19 158 29 185 8 19 7 17 17 65 4 22 12 45 16 50 5 6 10 37
12 70 3 65 2 66 -57 58z"/>
<path d="M17815 33311 c-314 -78 -618 -430 -706 -819 -86 -381 30 -721 289
-849 l76 -38 131 0 c127 0 132 1 216 36 125 52 191 99 309 219 119 121 191
228 252 376 64 157 79 229 85 409 5 139 2 171 -16 247 -78 328 -332 495 -636
419z"/>
<path d="M28856 33091 c3 -16 0 -32 -6 -36 -8 -5 -8 -11 1 -21 9 -11 9 -14 0
-14 -7 0 -10 -4 -6 -9 3 -5 1 -12 -4 -16 -5 -3 -8 -14 -6 -25 3 -14 -2 -20
-13 -20 -12 0 -13 -3 -5 -8 9 -6 12 -47 3 -47 -1 0 -3 -20 -4 -44 -2 -26 -9
-47 -18 -52 -9 -5 -14 -19 -13 -34 2 -14 0 -25 -5 -25 -4 0 -6 -9 -3 -20 3
-11 0 -26 -6 -34 -11 -13 -74 11 -287 109 -46 21 -208 89 -401 166 -150 61
-179 69 -236 69 -74 0 -121 -17 -172 -61 -58 -51 -74 -82 -94 -181 -66 -320
-12 -561 155 -691 45 -35 197 -107 649 -307 180 -80 762 -380 981 -506 93 -53
201 -115 239 -137 202 -114 339 -206 513 -345 125 -100 189 -158 181 -162 -8
-5 -5 -10 10 -15 11 -3 21 -11 21 -16 0 -6 -5 -7 -10 -4 -6 4 -8 -7 -5 -29 2
-20 0 -36 -5 -36 -6 0 -9 -3 -8 -7 1 -5 -2 -28 -6 -53 -5 -25 -8 -49 -7 -54 1
-5 -1 -16 -5 -25 -4 -9 -9 -23 -11 -31 -1 -8 -5 -26 -8 -40 -3 -14 -7 -41 -10
-60 -3 -19 -8 -42 -12 -50 -3 -8 -7 -27 -7 -42 -1 -15 -5 -30 -9 -34 -11 -12
-8 -49 6 -64 6 -7 0 -5 -14 6 -15 10 -24 23 -21 28 3 5 0 6 -5 3 -6 -4 -49 22
-96 58 -260 196 -700 469 -1109 687 -64 34 -115 64 -113 66 2 2 12 -1 23 -7
19 -10 20 -9 12 19 -5 18 -5 32 1 36 5 3 6 10 3 16 -4 7 -2 8 4 4 8 -5 12 6
13 36 0 24 2 53 5 65 2 12 -1 25 -7 28 -7 5 -6 12 3 22 15 18 20 39 19 76 -1
15 3 27 9 27 5 0 10 7 10 15 0 8 5 15 12 15 6 0 4 6 -6 13 -18 13 -18 15 5 36
21 19 21 21 4 15 -11 -4 -17 -3 -12 1 8 10 -26 30 -207 123 -201 103 -244 122
-250 106 -7 -18 8 -26 31 -17 13 4 11 0 -7 -15 -14 -12 -21 -21 -17 -22 4 0 2
-10 -5 -22 -7 -13 -14 -39 -15 -58 -2 -31 -8 -66 -13 -80 -1 -3 -3 -9 -5 -15
-1 -5 -3 -12 -4 -15 -9 -19 -7 -40 2 -40 7 0 4 -5 -7 -11 -15 -9 -16 -13 -5
-20 10 -6 10 -9 2 -9 -7 0 -10 -6 -7 -14 3 -8 1 -17 -5 -21 -6 -3 -11 -15 -11
-25 0 -10 -6 -21 -12 -24 -9 -3 -6 -11 11 -25 29 -26 16 -27 -24 -3 -16 10
-70 34 -120 54 -49 20 -115 47 -145 61 -54 24 -239 100 -475 193 -107 43 -129
48 -200 48 -89 1 -119 -11 -186 -71 -77 -70 -83 -92 -87 -318 -3 -177 -1 -210
17 -284 27 -107 62 -171 129 -232 64 -59 83 -69 284 -153 84 -35 239 -100 343
-144 418 -175 1152 -543 1515 -760 97 -58 450 -329 447 -344 -1 -6 5 -13 13
-15 13 -4 13 -3 1 5 -16 12 -3 15 139 32 214 27 364 87 464 186 44 43 56 61
61 97 13 86 -26 179 -136 320 -63 80 -76 103 -69 118 6 9 13 34 16 54 3 21 7
45 9 54 2 9 9 43 15 76 7 33 14 67 17 75 7 19 9 27 16 65 3 17 10 53 17 80 6
28 13 61 15 75 2 14 4 27 4 29 1 2 9 -3 18 -10 10 -8 2 5 -16 29 -44 56 -168
155 -183 146 -6 -4 -8 -3 -4 4 3 6 -3 14 -15 17 -34 11 -10 21 89 39 237 42
424 142 516 275 25 36 30 52 30 106 0 84 -45 175 -148 304 -65 80 -74 96 -65
113 6 11 13 34 15 51 2 18 13 75 25 127 45 206 59 282 51 296 -15 27 -127 116
-177 140 -27 14 -42 19 -33 11 15 -12 15 -14 0 -25 -9 -7 -11 -10 -4 -7 8 4
11 -1 8 -17 -3 -13 -6 -25 -7 -28 -1 -3 -3 -9 -4 -15 -2 -5 -4 -12 -5 -15 -1
-3 -3 -20 -5 -39 -2 -19 -10 -38 -17 -42 -11 -7 -10 -9 1 -9 11 0 10 -5 -3
-25 -9 -13 -16 -31 -16 -40 0 -8 -6 -15 -12 -15 -8 0 -9 -3 -3 -8 14 -10 17
-32 7 -46 -8 -10 -12 -34 -15 -81 0 -11 -5 -23 -11 -27 -6 -4 -5 -12 3 -22 8
-9 9 -16 3 -16 -15 0 -33 26 -24 35 4 5 2 5 -5 1 -7 -4 -49 21 -100 60 -78 59
-436 299 -521 350 -203 120 -257 152 -314 185 -38 22 -98 56 -135 78 -38 21
-115 64 -173 96 -93 50 -106 60 -55 39 14 -6 14 -3 3 21 -9 21 -9 28 1 34 7 5
12 11 12 15 -1 3 -1 21 0 39 1 30 2 30 8 7 l7 -25 6 28 c3 16 1 27 -6 27 -8 0
-8 2 0 8 16 10 36 86 28 106 -3 9 -2 16 2 16 5 0 8 20 7 45 -1 25 3 45 8 45 5
0 9 8 7 18 -2 12 3 16 17 14 11 -1 -7 12 -40 31 -33 18 -116 65 -185 104 -69
38 -153 84 -187 101 l-61 31 4 -28z"/>
<path d="M19625 32640 c17 -4 22 -8 13 -9 -11 -1 -16 -8 -13 -22 2 -11 -5 -36
-15 -55 -11 -18 -15 -34 -9 -34 6 0 7 -9 3 -22 -4 -13 -9 -32 -11 -43 -1 -11
-10 -54 -19 -95 -9 -41 -17 -84 -19 -95 -1 -11 -4 -20 -5 -20 -1 0 -3 -13 -5
-30 -5 -65 -4 -62 -15 -45 -5 8 -10 10 -10 5 0 -6 5 -16 12 -23 6 -6 9 -15 5
-18 -4 -4 -136 -1 -294 5 -426 18 -392 31 -668 -264 -77 -82 -178 -190 -225
-240 -197 -210 -349 -373 -381 -409 l-34 -39 80 6 c171 14 809 29 985 23 205
-7 683 -33 745 -41 22 -2 114 -9 205 -15 222 -14 608 -47 755 -65 66 -8 203
-24 305 -35 334 -37 708 -103 998 -174 567 -140 746 -189 1097 -301 83 -26
191 -60 240 -75 50 -15 173 -59 275 -98 102 -39 268 -102 370 -140 102 -39
239 -94 305 -122 66 -29 158 -68 205 -87 47 -19 189 -85 315 -146 l230 -112
110 0 c96 0 116 3 155 24 115 60 194 161 228 288 44 165 45 297 3 396 -23 53
-96 135 -157 178 -43 29 -282 144 -589 282 -55 25 -116 52 -136 60 -28 12 -35
20 -33 38 1 13 3 26 5 29 1 3 3 16 5 30 5 55 14 93 23 104 5 6 13 40 17 74 4
35 12 69 18 75 6 7 12 30 13 52 5 73 14 105 32 105 51 1 -432 204 -812 341
-111 40 -133 46 -107 29 13 -9 13 -10 0 -10 -13 0 -13 -1 0 -10 9 -6 11 -13 5
-17 -5 -5 -11 -15 -12 -23 -1 -8 -7 -40 -13 -70 -6 -30 -14 -71 -16 -90 -3
-19 -9 -48 -14 -64 -6 -15 -7 -32 -4 -37 3 -5 0 -9 -7 -9 -7 0 -10 -2 -7 -5 3
-3 -3 -44 -12 -90 -9 -46 -15 -87 -12 -90 10 -10 -7 -5 -150 39 -131 40 -371
110 -698 203 -69 19 -129 39 -133 43 -5 4 -4 16 1 26 5 11 12 35 15 54 6 40
58 295 82 395 8 37 13 70 10 73 -13 13 -585 156 -593 148 -3 -3 2 -6 11 -6 10
0 17 -4 17 -10 0 -5 -6 -10 -12 -10 -10 0 -9 -3 1 -9 9 -6 10 -11 2 -15 -6 -4
-8 -18 -5 -32 3 -13 1 -31 -5 -38 -8 -10 -9 -16 -1 -21 14 -9 13 -26 -2 -23
-8 2 -12 -5 -10 -16 2 -10 0 -25 -4 -35 -4 -9 -6 -28 -5 -43 3 -34 -8 -70 -18
-63 -5 2 -14 -29 -22 -70 -7 -41 -18 -75 -23 -75 -6 0 -5 -4 3 -9 12 -8 12
-12 2 -25 -8 -9 -10 -16 -5 -16 5 0 0 -7 -10 -15 -19 -14 -19 -15 -1 -15 10 0
16 -3 13 -6 -4 -3 -54 4 -113 16 -159 32 -357 66 -575 99 -107 17 -217 34
-245 40 -27 5 -107 15 -177 22 -70 7 -125 15 -123 18 2 4 -20 6 -48 5 -37 -1
-41 0 -14 3 30 3 37 8 33 20 -4 8 -1 22 5 29 9 11 9 17 0 28 -9 11 -9 17 1 27
8 8 13 25 12 38 -2 36 12 76 25 73 9 -2 9 3 3 15 -7 11 -6 21 4 31 8 7 12 18
9 23 -4 5 -2 9 3 9 6 0 9 18 7 40 -2 22 0 40 5 40 5 0 7 11 4 25 -2 14 0 25 5
25 6 0 8 6 5 14 -3 8 -1 17 5 20 5 4 8 17 5 31 -3 20 1 26 23 32 25 7 23 8
-22 15 -48 8 -116 14 -675 58 -255 21 -781 35 -725 20z"/>
<path d="M16010 32585 c-8 -2 -62 -11 -120 -20 -106 -16 -345 -73 -518 -122
-64 -18 -97 -33 -104 -46 -16 -31 -26 -69 -69 -266 -21 -101 -48 -213 -59
-249 -35 -112 -27 -155 42 -220 53 -52 182 -116 353 -175 72 -25 137 -49 146
-52 14 -5 12 -23 -14 -150 -17 -80 -29 -147 -26 -149 2 -3 36 -1 74 4 380 47
1184 85 1335 62 36 -5 67 -8 68 -7 3 3 -204 447 -364 782 -86 179 -96 183
-454 159 -140 -9 -273 -19 -295 -21 -24 -3 -32 -2 -20 3 14 4 21 16 20 32 0
14 4 34 10 45 11 23 13 32 19 95 2 25 10 59 16 75 7 17 14 46 15 65 2 19 4 37
5 40 1 3 2 13 1 23 -1 9 3 17 9 17 6 0 8 5 5 10 -3 6 0 10 7 10 8 0 9 3 3 8
-6 4 -11 16 -10 27 0 15 -7 20 -30 22 -16 0 -37 0 -45 -2z"/>
<path d="M15635 31068 c-151 -15 -494 -80 -603 -113 -89 -27 -108 -52 -142
-190 -16 -66 -40 -174 -54 -240 -14 -66 -32 -137 -40 -157 -54 -128 38 -219
339 -337 82 -32 167 -64 188 -71 25 -8 37 -17 37 -30 0 -10 -14 -76 -30 -147
-17 -70 -33 -139 -36 -152 -5 -23 -4 -24 53 -17 148 16 477 36 781 47 320 12
388 11 626 -14 22 -2 23 -2 71 213 93 416 123 542 131 550 8 8 784 -7 793 -15
3 -3 -77 -363 -145 -654 -13 -57 -23 -105 -21 -107 2 -2 223 1 493 5 478 9
584 6 954 -24 36 -3 164 -12 285 -20 121 -8 240 -17 265 -20 25 -2 81 -7 125
-10 100 -8 746 -79 960 -106 88 -11 243 -35 345 -54 102 -19 250 -45 330 -59
179 -31 167 -28 610 -137 201 -50 451 -115 555 -145 105 -31 258 -76 340 -99
156 -46 246 -76 505 -170 85 -31 205 -74 265 -95 61 -21 153 -57 205 -78 360
-149 484 -204 631 -277 207 -104 253 -118 367 -113 136 7 191 34 295 149 62
67 126 313 112 433 -13 122 -76 225 -179 295 -46 32 -340 170 -696 326 -89 40
-112 52 -70 40 18 -5 22 -4 14 4 -13 14 -6 71 10 71 6 0 4 5 -4 10 -12 7 -12
12 -2 22 6 6 12 22 12 35 0 13 5 23 10 23 7 0 7 6 1 18 -7 12 -4 24 11 42 12
15 15 26 9 28 -6 2 -8 9 -4 15 7 12 14 47 17 85 0 12 3 22 6 22 3 0 6 21 7 46
1 26 7 52 12 57 13 13 14 30 2 23 -5 -4 -11 -2 -13 3 -3 9 -205 100 -320 145
-202 79 -531 196 -550 196 -14 0 -26 -36 -33 -100 -1 -8 -3 -17 -4 -20 -2 -3
-4 -13 -6 -24 -2 -10 -8 -39 -14 -65 -5 -25 -10 -53 -10 -61 0 -20 -20 -100
-32 -125 -5 -11 -10 -44 -12 -72 -1 -29 -3 -53 -5 -53 -2 0 -119 32 -260 72
-141 39 -320 88 -397 109 -243 65 -315 86 -321 91 -3 4 0 32 6 65 6 32 13 69
16 83 3 14 10 43 16 65 5 22 12 54 14 70 2 17 17 85 32 152 l29 123 -36 10
c-20 6 -130 33 -246 61 -115 28 -229 57 -252 63 -36 11 -42 11 -42 -3 0 -9 -3
-27 -5 -41 -2 -14 -5 -42 -5 -63 -1 -24 -5 -36 -11 -32 -7 4 -8 -3 -4 -20 4
-17 2 -30 -5 -34 -6 -4 -13 -28 -14 -52 -2 -25 -7 -50 -11 -57 -4 -7 -3 -12 2
-12 5 0 7 -11 5 -24 -3 -16 -10 -23 -19 -19 -8 3 -14 0 -14 -6 0 -6 5 -11 10
-11 6 0 10 -5 10 -11 0 -5 -5 -7 -11 -3 -8 4 -9 -1 -4 -16 4 -14 3 -20 -3 -16
-12 7 -22 -38 -11 -55 4 -8 1 -18 -9 -26 -9 -7 -13 -13 -8 -13 5 0 3 -7 -4
-15 -10 -12 -9 -15 5 -15 10 0 16 -2 13 -5 -3 -3 -117 17 -254 44 -137 28
-324 61 -416 76 -92 14 -173 28 -180 30 -7 3 -96 16 -198 30 -175 23 -276 42
-237 44 9 1 17 7 18 14 0 6 2 21 5 32 2 11 5 35 6 53 1 21 6 32 17 33 11 0 12
2 3 6 -10 4 -10 8 -1 19 9 11 8 14 -2 14 -9 1 -8 4 4 11 9 6 15 14 12 20 -4 5
-3 14 1 21 4 6 9 32 11 56 2 25 8 51 14 58 6 8 9 20 6 29 -4 8 1 19 11 24 12
7 13 10 3 11 -16 0 -6 50 12 62 9 6 8 8 -2 8 -11 0 -11 3 -1 15 7 8 9 15 4 15
-5 0 -2 5 6 10 13 8 12 10 -3 10 -10 0 -16 4 -13 8 4 6 -343 45 -599 67 -253
22 -845 49 -785 35 19 -4 27 -8 18 -9 -10 0 -18 -7 -19 -13 -4 -70 -13 -115
-25 -124 -19 -15 -18 -25 4 -18 16 5 16 5 -1 -9 -16 -14 -22 -34 -26 -92 -1
-17 -3 -18 -12 -5 -8 11 -9 5 -6 -27 3 -22 1 -45 -3 -50 -8 -8 -21 -87 -21
-125 0 -10 -4 -18 -10 -18 -5 0 -9 -4 -9 -9 0 -6 17 -12 38 -14 20 -2 6 -2
-33 0 -204 11 -913 43 -1060 48 -357 12 -457 14 -1040 21 -444 5 -688 3 -940
-7 -411 -17 -470 -17 -468 -4 0 6 4 26 8 45 3 19 6 47 6 63 -1 15 4 27 9 27 6
0 9 4 5 9 -3 5 -1 12 5 16 6 4 8 10 5 15 -2 4 -1 21 5 36 8 27 18 96 19 137 1
11 5 15 13 11 7 -5 9 -2 5 8 -3 9 -3 19 1 22 13 14 10 42 -6 55 -16 13 -16 13
0 8 10 -3 20 -2 23 3 7 11 -14 11 -140 -2z"/>
<path d="M28190 30059 c0 -5 7 -12 15 -16 14 -5 14 -8 0 -30 -12 -18 -13 -28
-5 -38 8 -9 7 -14 -4 -18 -9 -4 -12 -14 -9 -26 4 -15 1 -21 -12 -21 -14 0 -15
-3 -5 -15 10 -12 10 -15 -1 -15 -11 0 -11 -2 1 -10 13 -8 12 -10 -2 -10 -13 0
-17 -6 -14 -22 2 -13 -1 -29 -6 -35 -6 -7 -8 -19 -5 -28 4 -8 2 -17 -3 -20 -4
-3 -7 -13 -5 -23 1 -9 -2 -23 -7 -29 -6 -7 -8 -19 -5 -27 3 -8 3 -17 -1 -21
-3 -3 -7 -18 -7 -33 0 -21 -5 -26 -20 -24 -17 2 -16 0 5 -12 14 -9 22 -15 18
-16 -8 0 -97 34 -143 55 -36 17 -275 114 -400 162 -274 105 -412 153 -446 153
-90 0 -197 -64 -246 -148 -27 -45 -27 -51 -31 -232 -4 -171 -2 -192 21 -282
52 -206 121 -271 407 -388 324 -133 560 -235 694 -299 82 -39 190 -90 240
-114 223 -105 766 -391 920 -486 69 -43 361 -261 412 -308 14 -13 27 -23 28
-21 2 2 12 19 24 38 19 33 27 37 119 58 311 73 520 178 574 288 20 42 21 51
10 99 -14 61 -69 152 -147 241 -29 34 -51 63 -49 66 3 2 7 21 11 42 3 21 8 48
10 60 6 26 20 93 28 126 17 73 19 87 22 110 2 26 9 59 18 88 3 9 7 30 10 45 3
16 10 34 15 41 8 9 -1 23 -32 53 -46 44 -223 167 -194 135 10 -11 14 -23 9
-26 -5 -3 -9 -17 -9 -31 0 -13 4 -22 9 -19 5 4 3 -7 -5 -22 -8 -16 -17 -40
-18 -54 -2 -14 -8 -28 -14 -32 -6 -5 -5 -11 4 -17 10 -7 10 -10 1 -13 -7 -2
-14 -17 -16 -33 -1 -17 -5 -41 -8 -55 -4 -14 -9 -45 -12 -70 -3 -25 -10 -50
-16 -57 -5 -7 -7 -22 -3 -34 5 -15 4 -19 -5 -14 -9 6 -9 3 -1 -13 8 -15 8 -23
0 -27 -6 -4 -8 -14 -4 -22 5 -14 3 -14 -14 -2 -260 185 -655 416 -1066 622
-196 99 -299 155 -261 143 17 -6 17 -5 5 11 -12 15 -12 16 4 10 12 -5 16 -3
11 5 -11 17 -15 68 -5 68 4 0 6 12 3 26 -3 19 -1 25 7 20 6 -4 11 -2 11 3 0 6
-4 11 -9 11 -4 0 -6 11 -3 25 2 14 9 22 15 18 7 -4 8 6 5 28 -6 33 10 72 28
69 5 -1 10 4 13 11 2 6 -1 9 -6 6 -5 -3 -9 3 -9 13 0 10 5 16 10 13 5 -4 7 1
3 10 -4 10 -2 17 5 17 7 0 6 5 -2 15 -9 11 -9 15 -1 15 8 0 9 5 3 17 -13 21 9
45 35 37 29 -8 -230 122 -369 186 -71 32 -128 54 -128 49z"/>
<path d="M15395 29553 c-164 -13 -356 -37 -440 -54 -55 -12 -122 -25 -150 -30
-78 -15 -178 -48 -203 -68 -19 -14 -29 -41 -47 -122 -58 -259 -85 -377 -96
-410 -16 -51 2 -98 55 -147 72 -67 153 -107 396 -197 l115 -42 -2 -40 c-1 -22
-18 -108 -38 -192 -20 -84 -35 -154 -33 -155 2 -1 89 3 193 10 105 7 363 15
575 19 334 7 406 5 543 -10 87 -10 159 -16 161 -14 2 2 25 96 50 209 56 252
114 507 121 538 l6 24 162 -6 c367 -14 622 -28 628 -34 4 -4 -6 -61 -21 -127
-99 -433 -140 -619 -140 -626 0 -5 232 -9 528 -9 483 0 549 -2 792 -25 146
-13 400 -36 565 -50 267 -22 428 -38 505 -50 14 -3 120 -16 235 -30 514 -62
528 -64 1130 -175 282 -52 913 -205 1400 -340 308 -86 309 -86 940 -305 44
-15 114 -42 155 -60 147 -64 318 -135 325 -135 4 0 104 -47 223 -104 285 -136
294 -139 423 -140 102 -1 107 0 181 36 129 64 188 159 233 376 31 149 10 268
-63 365 -67 89 -99 107 -550 308 -73 32 -136 59 -138 59 -3 0 -29 11 -57 25
-29 13 -74 34 -102 45 -33 14 -40 19 -20 15 24 -4 27 -3 13 5 -17 10 -17 13
-2 35 13 20 14 25 3 25 -12 0 -12 2 0 9 8 5 15 20 17 33 8 77 14 106 23 131 6
16 9 33 5 38 -3 5 0 9 7 9 8 0 8 4 -1 15 -9 10 -9 15 -1 15 6 0 10 3 9 8 -5
19 15 111 23 106 5 -3 9 9 9 26 0 21 -4 29 -12 24 -7 -4 -8 -3 -4 4 4 7 15 12
24 13 46 1 -293 144 -602 253 -264 94 -335 116 -306 96 8 -5 10 -10 4 -10 -6
0 -10 -10 -9 -22 1 -13 -2 -32 -8 -42 -5 -11 -11 -31 -12 -45 -1 -14 -6 -42
-10 -61 -4 -19 -9 -44 -11 -55 -2 -11 -10 -47 -18 -80 -8 -33 -17 -84 -21
-114 -4 -29 -10 -48 -14 -42 -4 7 -8 -2 -8 -19 0 -16 5 -30 10 -30 6 0 8 -2 5
-5 -3 -3 -109 22 -234 56 -308 82 -553 147 -644 170 -90 22 -134 40 -123 48 5
3 14 33 21 66 7 33 15 69 17 80 3 11 8 36 11 55 4 19 19 92 35 162 16 70 31
141 33 157 4 34 28 26 -289 102 -228 55 -229 55 -262 65 -17 5 -23 2 -23 -10
0 -9 7 -16 15 -16 12 0 11 -4 -5 -20 -17 -17 -25 -48 -23 -97 1 -7 -3 -13 -7
-13 -4 0 -5 -11 -2 -25 2 -14 0 -25 -7 -25 -5 0 -8 -7 -5 -15 4 -8 2 -21 -4
-28 -18 -23 -20 -66 -3 -70 14 -4 14 -5 0 -6 -19 -1 -32 -41 -23 -65 4 -10 1
-16 -7 -16 -9 0 -10 -3 -4 -8 6 -4 8 -22 4 -42 -6 -35 -6 -35 -8 -5 l-3 30
-10 -29 c-8 -22 -7 -30 3 -37 11 -7 11 -9 -3 -9 -11 0 -15 -6 -11 -20 3 -13 0
-20 -8 -20 -11 0 -11 -2 1 -10 8 -5 12 -10 7 -10 -8 0 -165 34 -252 55 -49 12
-272 52 -585 107 -30 5 -116 18 -190 29 -212 31 -303 48 -248 46 30 -1 44 1
38 7 -6 6 -10 26 -9 45 0 29 2 32 9 16 9 -22 9 -23 14 55 0 14 4 30 7 35 3 6
5 24 5 40 -1 17 2 33 7 36 5 4 10 19 11 35 1 16 4 34 8 39 4 6 5 23 4 38 -2
15 1 27 7 27 5 0 4 6 -3 14 -9 12 -7 17 9 28 12 7 21 23 21 35 0 12 4 24 9 27
5 3 7 15 4 25 -4 16 1 20 29 24 19 3 12 4 -19 3 -28 0 -49 1 -47 4 7 6 -283
45 -481 64 -206 21 -720 56 -807 56 -66 0 -66 0 -77 -32 -6 -18 -13 -55 -17
-83 -3 -27 -8 -54 -12 -59 -3 -6 -6 -23 -7 -38 -1 -16 -7 -34 -13 -40 -7 -7
-12 -17 -12 -22 0 -6 5 -4 10 4 5 8 10 10 10 4 0 -6 -7 -17 -15 -24 -8 -7 -14
-22 -14 -34 0 -11 -4 -41 -11 -65 -17 -68 -19 -105 -7 -120 10 -12 0 -13 -68
-7 -83 7 -557 40 -800 56 -77 5 -176 12 -220 15 -73 5 -239 11 -890 32 -126 5
-530 8 -897 8 -449 0 -661 3 -650 10 10 6 17 21 16 35 -1 14 2 32 6 40 4 8 11
40 14 70 4 30 11 57 17 61 8 4 7 8 -2 12 -10 4 -10 6 -1 6 6 1 12 9 12 19 0
10 7 45 16 77 8 33 16 72 16 87 1 15 5 25 10 22 4 -3 8 0 8 5 0 6 -6 12 -12
12 -7 1 5 5 27 9 l40 7 -35 0 c-19 0 -53 -2 -75 -4z"/>
<path d="M27858 28497 c12 -7 19 -17 15 -21 -8 -7 -9 -11 -12 -37 0 -5 -7 -7
-13 -3 -10 6 -10 5 -1 -7 7 -9 8 -20 3 -28 -4 -8 -6 -25 -4 -38 3 -16 1 -22
-6 -18 -7 4 -9 -3 -6 -19 3 -14 1 -26 -4 -26 -5 0 -7 -13 -3 -30 4 -23 2 -30
-11 -30 -18 0 -22 -15 -6 -25 6 -3 10 -11 10 -16 0 -6 -4 -7 -10 -4 -5 3 -11
-4 -12 -17 0 -13 -2 -29 -2 -37 -1 -8 -7 -16 -15 -19 -11 -4 -11 -6 0 -12 10
-7 10 -11 0 -24 -11 -14 -16 -14 -41 -1 -50 26 -542 205 -759 276 -101 34
-135 40 -180 37 -100 -7 -197 -72 -244 -163 -30 -59 -38 -352 -12 -481 40
-205 123 -288 389 -385 45 -17 119 -45 166 -63 47 -19 153 -60 235 -91 137
-53 237 -96 610 -267 72 -33 245 -118 385 -190 499 -256 516 -266 802 -480
l117 -87 20 44 c13 30 27 46 43 49 13 3 97 22 188 42 90 19 185 43 210 51 75
25 194 91 229 127 87 89 47 218 -127 408 -31 35 -48 56 -38 48 12 -9 17 -10
12 -2 -4 6 -4 18 0 24 5 7 9 26 11 43 1 16 10 55 18 85 16 55 18 64 28 130 4
19 13 67 22 105 9 39 18 77 20 86 4 20 -19 42 -102 98 -36 24 -68 39 -74 35
-7 -4 -9 -3 -6 3 4 6 -6 15 -21 22 -24 10 -25 10 -9 -3 12 -10 14 -15 6 -18
-7 -2 -14 -14 -16 -26 -5 -36 -11 -67 -13 -67 -1 0 -3 -9 -5 -20 -1 -11 -6
-33 -10 -50 -4 -16 -8 -41 -10 -55 -4 -42 -17 -90 -26 -96 -14 -8 -10 -26 4
-18 6 4 4 -2 -6 -14 -11 -12 -16 -28 -13 -39 3 -10 1 -25 -4 -33 -6 -9 -5 -19
3 -29 10 -12 9 -13 -11 -2 -12 7 -20 17 -16 23 4 6 3 8 -4 4 -6 -3 -57 25
-114 63 -202 135 -548 335 -808 466 -168 85 -380 190 -400 198 -8 3 -10 6 -3
6 6 1 9 10 6 21 -3 11 0 20 6 20 8 0 9 5 1 19 -7 14 -7 22 2 27 7 4 8 3 4 -4
-4 -7 -1 -12 7 -12 22 0 30 30 9 30 -15 1 -15 2 -1 13 9 7 14 18 12 25 -3 6 0
12 5 12 6 0 8 9 5 20 -3 11 2 41 12 66 9 25 15 56 12 70 -3 17 0 24 11 24 12
0 12 3 1 16 -11 14 -10 19 8 34 21 17 21 17 -40 47 -206 99 -405 191 -427 197
l-25 7 23 -14z"/>
<path d="M15030 28033 c-379 -20 -736 -90 -787 -155 -5 -7 -29 -103 -52 -213
-22 -110 -50 -229 -61 -265 -11 -36 -20 -76 -20 -90 0 -55 64 -121 173 -176
49 -25 256 -100 360 -129 50 -14 56 -19 52 -38 -37 -165 -77 -349 -82 -376 -6
-32 -5 -34 18 -27 13 4 281 10 594 12 520 5 582 4 709 -13 94 -13 139 -16 142
-9 2 6 22 92 44 191 85 384 127 565 134 572 4 4 161 -3 349 -15 188 -12 358
-22 377 -22 19 0 41 -4 48 -9 15 -9 12 -24 -102 -524 -36 -160 -50 -240 -42
-242 6 -2 236 -6 511 -9 525 -7 535 -7 1005 -55 162 -17 363 -37 445 -46 274
-27 504 -57 1055 -136 301 -42 789 -135 1105 -209 94 -22 267 -62 385 -90 209
-48 313 -74 720 -181 107 -28 351 -101 542 -164 326 -106 485 -168 1028 -398
272 -115 284 -118 395 -124 119 -7 191 10 251 58 45 35 115 139 140 207 10 26
29 74 43 107 50 121 29 281 -53 388 -61 80 -125 116 -491 273 -82 36 -179 77
-215 93 -36 15 -107 45 -157 67 -51 21 -88 41 -83 44 5 3 11 15 13 26 1 11 13
33 25 49 12 15 22 34 22 41 0 8 4 14 9 14 8 0 21 34 20 54 -1 5 5 12 13 17 7
5 13 12 13 16 1 15 35 71 45 75 5 1 11 22 12 46 1 23 5 42 10 42 4 0 8 5 8 11
0 5 -5 7 -10 4 -16 -10 0 48 17 61 15 13 7 18 -152 87 -188 82 -261 110 -460
176 -263 87 -326 105 -303 87 12 -8 14 -16 7 -23 -9 -9 -18 -59 -22 -115 -1
-9 -4 -15 -8 -13 -7 5 -35 -143 -31 -159 2 -5 0 -16 -4 -25 -10 -24 -12 -51
-2 -51 4 0 8 -5 8 -11 0 -5 -4 -8 -8 -5 -5 3 -8 -21 -7 -52 1 -31 -3 -63 -8
-69 -7 -9 -4 -13 9 -14 11 0 14 -2 9 -5 -6 -2 -107 21 -225 52 -118 31 -339
87 -490 125 -282 71 -337 88 -323 98 4 3 9 11 9 16 1 6 11 48 23 95 11 47 23
101 26 120 3 19 11 53 17 75 5 22 12 51 15 64 2 14 12 60 22 103 l18 77 -31
10 c-17 6 -74 20 -126 31 -52 12 -168 39 -258 61 -90 22 -166 38 -169 35 -4
-3 2 -6 12 -6 14 0 15 -3 5 -15 -7 -8 -17 -12 -23 -8 -6 3 -7 1 -3 -6 4 -6 12
-9 17 -6 5 4 9 -1 9 -10 0 -11 -5 -15 -15 -11 -8 3 -15 1 -15 -4 0 -6 5 -10
10 -10 6 0 10 -7 10 -16 0 -8 -4 -12 -10 -9 -5 3 -10 -3 -10 -14 0 -11 -6 -32
-12 -47 -9 -20 -10 -28 -1 -31 6 -2 9 -13 6 -23 -3 -11 -9 -17 -14 -14 -5 3
-6 -3 -2 -12 4 -10 2 -15 -4 -11 -6 4 -9 -6 -8 -24 1 -16 -2 -32 -7 -35 -4 -3
-6 -10 -2 -15 3 -5 1 -16 -6 -23 -6 -8 -9 -26 -6 -40 3 -14 0 -26 -5 -26 -6 0
-8 -9 -4 -19 3 -11 -1 -26 -11 -36 -16 -15 -15 -17 3 -30 24 -17 37 -55 20
-56 -7 0 2 -7 18 -15 26 -13 27 -14 5 -10 -14 3 -33 6 -43 6 -10 0 -16 4 -13
9 4 5 -2 7 -12 4 -10 -2 -76 10 -147 27 -136 32 -461 95 -700 135 -77 13 -178
31 -225 40 -47 9 -128 22 -180 29 -65 10 -81 14 -52 15 39 1 43 3 37 21 -5 16
-2 20 17 21 13 0 18 3 11 6 -9 3 -7 10 7 25 10 11 16 26 13 34 -3 8 -2 22 2
32 5 9 9 22 10 27 1 6 3 12 4 15 1 3 5 32 7 65 3 33 10 63 16 66 6 4 7 12 3
19 -4 7 -2 16 6 21 12 7 12 9 0 9 -11 0 -11 3 -1 15 9 11 10 18 1 29 -9 11 -9
14 1 12 7 0 15 4 16 9 2 6 8 16 14 23 6 6 8 12 4 12 -3 0 -1 11 4 25 8 22 7
25 -13 27 -12 0 -2 4 23 8 44 7 44 7 8 8 -20 1 -72 9 -115 17 -84 16 -615 80
-753 90 -47 4 -96 8 -110 10 -64 9 -373 27 -390 22 -11 -3 -18 -1 -14 4 3 5
-10 8 -28 8 -21 -1 -25 -3 -12 -6 21 -4 21 -6 7 -61 -15 -60 -24 -115 -24
-144 0 -10 -5 -20 -10 -23 -5 -4 -7 -11 -4 -16 4 -5 3 -14 -1 -21 -4 -7 -8
-36 -9 -66 -1 -34 -7 -57 -16 -63 -8 -5 -9 -9 -3 -9 6 0 11 -17 12 -37 1 -21
4 -49 7 -62 l4 -24 -97 7 c-53 4 -144 11 -202 16 -341 31 -981 76 -1180 85
-69 3 -156 7 -195 10 -163 12 -221 15 -430 25 -624 30 -1048 36 -1421 21 -89
-3 -174 -3 -190 0 -22 5 -24 7 -7 8 14 1 25 12 33 34 7 17 12 35 11 40 0 4 10
25 24 47 14 22 22 40 18 40 -5 0 1 7 11 15 11 8 16 15 12 15 -4 0 0 10 8 22 9
12 16 30 16 39 0 9 6 22 14 29 8 6 12 18 9 26 -3 8 1 14 11 14 10 0 16 9 16
25 0 14 5 25 11 25 6 0 9 7 5 15 -3 9 4 25 15 36 17 17 18 23 8 29 -8 6 1 11
27 15 80 13 69 15 -56 8z"/>
<path d="M27527 26999 c7 -9 10 -19 6 -23 -4 -4 1 -4 12 0 18 7 18 6 6 -9 -7
-9 -10 -17 -6 -17 5 0 0 -9 -9 -19 -11 -13 -15 -27 -11 -40 4 -13 2 -21 -5
-21 -6 0 -8 -5 -5 -10 4 -6 1 -17 -5 -25 -6 -8 -9 -18 -6 -24 3 -5 0 -12 -6
-14 -7 -3 -4 -6 7 -7 19 -1 19 -1 2 -11 -9 -6 -15 -14 -12 -20 4 -5 3 -15 -2
-21 -4 -7 -8 -24 -9 -38 -1 -14 -2 -25 -3 -25 -4 0 -13 -59 -13 -82 0 -13 -5
-23 -12 -23 -6 0 -12 -11 -12 -25 -1 -14 1 -23 5 -21 3 2 15 -2 26 -10 29 -21
15 -18 -102 27 -163 62 -395 146 -523 189 -63 21 -162 55 -219 74 -138 47
-203 48 -289 5 -59 -29 -112 -81 -142 -139 -9 -17 -15 -85 -18 -207 -6 -224
11 -330 65 -421 67 -111 123 -151 304 -218 68 -25 185 -68 259 -95 74 -28 172
-64 217 -80 73 -26 214 -83 568 -231 121 -50 260 -112 390 -173 39 -19 126
-59 195 -91 250 -114 343 -165 532 -290 106 -70 195 -132 197 -137 2 -5 18 17
35 49 l31 59 105 22 c285 60 434 118 522 203 51 49 51 49 45 100 -8 67 -46
134 -128 228 -56 65 -65 80 -58 99 4 12 18 64 29 115 11 51 25 111 31 133 5
22 11 57 14 78 2 21 7 42 11 48 3 6 8 25 11 42 3 18 9 37 14 43 15 18 -69 87
-218 178 -10 5 -11 1 -3 -18 6 -16 6 -35 0 -50 -5 -13 -6 -27 -2 -32 4 -4 1
-4 -5 0 -8 4 -13 2 -14 -6 -1 -13 -7 -54 -13 -93 -2 -11 -5 -20 -6 -20 -3 0
-6 -18 -14 -87 -3 -26 -11 -57 -18 -69 -11 -18 -11 -22 0 -26 9 -3 10 -9 3
-17 -5 -6 -12 -25 -14 -41 -3 -23 -9 -29 -23 -27 -12 2 -7 -5 14 -17 17 -12
32 -23 32 -26 0 -3 -24 10 -52 29 -64 42 -254 157 -363 218 -91 52 -463 248
-469 248 -3 0 -76 34 -163 76 -249 119 -316 151 -341 159 -13 4 -22 9 -19 11
2 3 17 0 33 -6 27 -11 27 -10 11 8 -19 21 -22 42 -7 42 14 0 33 52 23 59 -13
10 -14 32 -2 47 6 7 8 18 4 24 -3 5 0 10 7 10 10 0 10 2 0 8 -8 6 -10 19 -6
40 4 17 10 29 15 26 5 -3 6 2 3 10 -3 9 -3 24 1 34 5 9 9 32 10 49 1 18 4 35
7 39 4 3 4 12 1 20 -3 9 1 12 14 9 92 -17 -142 110 -387 210 -36 15 -72 32
-80 39 -13 9 -13 9 -3 -5z"/>
<path d="M14645 25756 c-64 -29 -116 -101 -167 -231 -75 -193 -126 -443 -193
-956 -39 -298 -55 -529 -55 -797 0 -424 49 -746 165 -1081 202 -587 588 -1074
1255 -1587 319 -245 454 -322 920 -521 484 -208 1160 -450 1770 -634 196 -59
445 -131 489 -142 24 -6 45 -16 48 -23 2 -7 -11 -91 -31 -186 -49 -244 -79
-418 -72 -425 3 -4 6 5 6 18 0 17 3 20 9 10 5 -7 33 -15 62 -18 30 -3 60 -10
67 -15 11 -10 30 -14 102 -23 14 -2 25 -4 25 -5 0 -2 26 -7 80 -14 22 -3 58
-10 79 -15 22 -5 44 -7 48 -5 5 3 16 0 24 -7 9 -7 31 -12 50 -11 22 2 34 -2
34 -10 0 -10 3 -9 9 1 8 12 12 13 25 1 9 -7 19 -10 23 -7 3 4 14 2 25 -4 10
-6 40 -13 66 -15 98 -10 119 -14 175 -29 32 -9 62 -13 67 -10 5 3 12 1 15 -5
4 -6 15 -8 25 -5 10 3 25 -1 33 -10 16 -16 42 -21 33 -7 -3 5 1 9 9 9 8 0 13
-5 12 -10 -1 -6 23 -12 53 -14 30 -2 62 -6 70 -10 18 -7 45 -13 85 -18 17 -2
30 -4 30 -5 0 -1 14 -3 32 -5 17 -2 41 -9 53 -15 18 -10 21 -9 15 1 -5 8 -4
10 4 5 10 -7 60 -15 101 -18 8 0 21 -5 27 -10 12 -9 61 -17 110 -18 12 0 25
-5 28 -10 3 -5 12 -7 20 -4 7 3 23 1 34 -6 13 -7 21 -7 21 -1 0 6 15 1 34 -10
22 -13 37 -16 41 -9 4 7 12 7 26 0 11 -6 24 -8 30 -5 5 4 15 2 22 -3 7 -5 37
-13 67 -17 30 -4 59 -10 64 -13 5 -3 21 -6 35 -8 14 -1 37 -6 51 -9 24 -7 53
-11 93 -14 12 -1 16 -5 11 -13 -5 -9 -2 -9 9 1 13 10 20 11 30 2 8 -6 47 -13
88 -17 41 -3 86 -12 102 -19 15 -8 27 -10 27 -5 0 5 12 2 28 -6 32 -17 46 -18
36 -3 -3 6 5 4 18 -5 14 -9 27 -13 30 -10 4 3 22 1 42 -4 41 -12 52 -3 62 47
5 25 11 30 25 26 14 -5 19 0 22 22 2 15 3 6 0 -22 -12 -153 -224 -1341 -364
-2040 -11 -55 -35 -181 -54 -280 -18 -99 -59 -301 -90 -450 -108 -519 -147
-739 -130 -722 10 8 44 -58 45 -86 0 -10 5 -28 11 -39 28 -53 44 -334 27 -468
-17 -130 -39 -221 -63 -256 -14 -22 -15 -33 -5 -80 54 -259 221 -517 457 -705
46 -36 67 -59 59 -62 -8 -3 -17 -3 -20 1 -4 3 -13 7 -22 8 -24 4 -96 43 -136
75 -21 17 -38 26 -38 20 0 -12 -66 -7 -82 7 -7 5 -24 10 -38 9 -30 0 -94 10
-140 23 -18 5 -35 9 -39 8 -3 0 -8 1 -11 2 -3 2 -18 4 -35 6 -16 2 -43 6 -60
9 -16 2 -41 6 -55 8 -14 2 -36 9 -49 16 -19 11 -25 11 -32 0 -7 -12 -9 -12 -9
0 0 8 -7 11 -20 8 -11 -3 -20 -1 -20 5 0 6 -9 8 -20 5 -11 -3 -20 -1 -20 5 0
6 -7 8 -15 4 -8 -3 -27 -1 -42 5 -17 6 -30 6 -36 0 -7 -7 -16 -3 -29 11 -15
17 -18 18 -18 5 0 -10 -3 -17 -6 -17 -13 0 -67 67 -126 158 -42 62 -64 88 -70
80 -4 -7 -8 -56 -8 -108 0 -126 -35 -607 -39 -535 -1 27 -5 30 -33 31 -18 1
-80 8 -138 17 -58 9 -163 25 -235 36 -71 11 -195 29 -275 41 -80 12 -156 23
-170 25 -99 13 -265 37 -315 46 -83 14 -87 15 -116 23 -27 8 -109 -3 -549 -69
-298 -44 -303 -45 -297 -51 3 -3 79 -16 169 -29 430 -63 532 -78 793 -121 548
-89 854 -142 1036 -178 l116 -23 229 18 c126 10 306 23 399 28 94 6 199 13
235 16 36 3 187 12 335 20 149 8 308 17 355 20 47 3 180 9 295 15 116 6 235
13 265 15 30 3 219 10 420 16 201 6 366 13 368 14 1 1 -13 58 -32 126 -19 68
-55 198 -80 289 -25 91 -50 175 -55 187 -8 17 -5 27 10 46 10 14 37 63 58 110
28 61 58 106 107 158 260 283 401 607 459 1053 3 27 9 54 12 59 8 14 4 202 -8
297 -11 89 -75 369 -111 480 -30 92 -98 235 -153 321 -26 41 -93 119 -149 174
-88 88 -114 108 -206 154 -114 57 -200 78 -200 48 0 -9 5 -19 10 -22 6 -3 10
0 10 7 0 7 6 3 13 -9 49 -90 67 -127 68 -141 1 -10 4 -7 9 8 l8 25 1 -26 c1
-15 10 -37 21 -51 12 -16 16 -28 9 -35 -6 -6 12 -15 52 -27 208 -57 397 -233
490 -455 36 -86 50 -244 34 -386 -3 -27 -7 -63 -8 -78 -2 -16 -10 -32 -17 -37
-12 -8 -12 -10 1 -15 17 -6 15 -49 -3 -72 -6 -7 -8 -19 -5 -28 4 -8 2 -17 -4
-20 -5 -4 -7 -10 -4 -15 3 -4 -1 -20 -9 -35 -8 -15 -12 -34 -9 -42 4 -10 0
-13 -13 -11 -10 2 -19 -1 -19 -7 0 -5 -4 -16 -8 -22 -5 -8 -3 -13 4 -13 7 0 6
-8 -5 -25 -9 -14 -13 -25 -9 -25 5 0 2 -4 -5 -9 -7 -4 -14 -14 -16 -22 -7 -39
-19 -60 -32 -55 -15 6 -38 -29 -29 -44 4 -6 -7 -28 -24 -49 -17 -21 -28 -41
-24 -44 3 -4 -2 -10 -12 -13 -23 -9 -74 -65 -75 -81 0 -7 -7 -10 -15 -6 -9 3
-15 2 -13 -3 5 -17 -72 -83 -89 -77 -10 4 -14 2 -10 -5 8 -12 -52 -58 -70 -54
-21 5 -58 -19 -44 -28 8 -5 4 -12 -14 -24 -14 -9 -29 -15 -33 -12 -5 3 -21 -4
-37 -14 -17 -11 -38 -17 -51 -14 -28 7 -64 -12 -65 -34 0 -14 -2 -14 -9 3 -7
17 -9 17 -9 3 -1 -10 -7 -19 -13 -20 -14 -1 -30 -5 -38 -8 -25 -9 -40 -6 -40
8 -1 16 -2 16 -13 0 -8 -9 -22 -15 -33 -14 -10 2 -28 -1 -38 -7 -30 -15 -83
-20 -103 -9 -11 7 -26 7 -42 0 -17 -6 -27 -6 -29 1 -2 5 -14 6 -32 1 -16 -4
-31 -6 -34 -2 -3 3 -23 6 -44 7 -20 1 -37 3 -37 5 0 2 -11 4 -70 13 -11 2 -26
6 -33 11 -6 4 -12 4 -13 -1 0 -4 -5 3 -10 16 -6 14 -15 21 -24 17 -8 -3 -17
-1 -20 5 -4 5 -11 7 -16 4 -5 -4 -9 -1 -9 6 0 7 -3 9 -7 6 -3 -4 -12 -2 -20 4
-9 9 -13 8 -13 0 0 -9 -6 -8 -22 1 -13 7 -27 13 -33 13 -5 1 -9 6 -7 13 1 7
-2 12 -8 12 -5 0 -10 8 -10 18 0 14 -2 15 -10 2 -6 -10 -10 -11 -10 -2 0 6 -9
12 -19 12 -11 0 -22 8 -24 18 -12 47 -5 -66 9 -134 60 -299 190 -511 394 -643
34 -22 85 -47 113 -57 29 -9 57 -21 64 -26 6 -5 42 -12 80 -15 73 -6 189 16
293 56 30 11 55 19 57 17 3 -3 -173 -98 -187 -101 -3 -1 -16 -7 -30 -13 -60
-28 -153 -45 -276 -49 -110 -4 -144 -2 -212 15 -93 24 -225 87 -292 139 -126
100 -254 269 -327 435 l-12 27 35 -19 c19 -11 45 -20 57 -20 12 0 41 -7 65
-15 24 -9 65 -16 92 -18 28 -1 50 -5 50 -8 0 -3 6 -6 14 -6 12 0 10 10 -6 51
-80 200 -107 312 -129 546 -8 74 -15 127 -17 118 -4 -20 -17 -24 -27 -8 -4 6
-15 8 -24 5 -10 -3 -24 1 -31 10 -7 8 -19 15 -26 15 -8 0 -14 6 -14 13 0 11
-71 50 -95 51 -14 1 -45 34 -46 49 0 6 -5 3 -10 -8 -6 -13 -8 19 -5 95 9 195
49 385 124 585 124 331 310 589 557 771 127 94 315 172 455 190 51 7 50 14 -2
14 -25 0 -70 5 -99 10 -54 11 -145 23 -164 22 -34 -1 -180 -19 -180 -22 0 -2
-32 -9 -65 -15 -14 -2 -25 -4 -25 -5 0 -1 -7 -3 -15 -5 -17 -5 -107 -34 -130
-43 -8 -3 -19 -4 -24 -3 -5 1 -16 -5 -26 -14 -9 -8 -25 -13 -34 -9 -9 4 -16 1
-16 -6 0 -10 -3 -10 -15 0 -11 9 -15 9 -15 1 0 -7 -8 -11 -17 -9 -10 1 -24 -1
-32 -6 -11 -7 -12 -3 -7 20 4 16 8 39 9 52 1 12 7 22 12 22 6 0 3 4 -5 9 -8 6
-18 7 -22 5 -4 -3 -8 0 -8 5 0 6 7 11 15 11 15 0 16 6 19 60 1 14 5 31 9 38 5
8 3 12 -7 12 -9 0 -16 8 -16 18 0 14 2 15 10 2 8 -13 11 -11 16 8 4 12 11 22
16 22 5 0 6 5 3 11 -4 6 -13 8 -19 6 -7 -3 -13 1 -13 8 0 8 7 11 15 7 10 -3
13 -1 8 6 -4 7 -2 12 3 12 6 0 11 15 12 33 0 27 2 29 9 12 8 -19 9 -18 11 5 1
14 3 43 4 65 2 53 33 157 45 150 6 -4 10 -2 10 4 0 5 -6 11 -12 14 -7 2 -1 8
15 12 21 6 27 13 27 36 0 16 5 29 13 29 9 0 9 2 -1 9 -11 6 -10 10 4 15 16 6
16 8 4 16 -12 8 -12 10 4 10 13 0 17 5 13 20 -4 17 -2 18 14 9 21 -11 26 0 8
18 -8 8 -8 13 0 17 6 4 11 4 11 0 0 -3 8 4 19 17 10 13 16 29 14 36 -3 7 0 13
7 13 6 0 8 5 5 10 -4 6 -3 9 2 8 15 -4 54 23 47 33 -3 6 3 13 15 16 12 3 24
17 27 32 10 38 24 53 39 41 8 -7 16 -3 25 15 7 14 17 25 22 25 4 0 8 7 8 15 0
8 5 16 10 16 20 3 25 4 38 13 7 4 11 15 8 23 -3 8 -2 12 3 8 5 -3 23 9 40 26
17 16 35 27 41 24 6 -3 13 1 16 9 3 9 12 16 20 16 8 0 14 5 14 10 0 6 12 10
28 10 15 0 44 11 64 25 20 14 42 25 47 25 6 0 11 3 11 8 0 4 19 8 42 9 22 1
44 6 47 11 3 4 21 8 39 7 17 0 32 2 32 7 0 4 10 4 23 2 12 -3 33 -8 46 -11 16
-4 22 -2 17 6 -4 6 -2 11 3 11 6 0 11 -6 11 -12 0 -10 2 -10 8 0 9 13 42 6 42
-9 0 -15 28 -10 34 6 6 16 40 17 64 2 6 -5 17 -5 24 -1 6 4 8 3 5 -2 -3 -6 -2
-16 4 -24 7 -12 9 -12 9 -1 0 11 3 11 15 1 12 -10 15 -9 15 6 1 16 3 15 15 -6
8 -14 14 -19 15 -12 0 22 18 12 26 -15 5 -21 8 -24 11 -10 3 9 9 17 15 17 5 0
8 -7 4 -15 -3 -8 -1 -15 4 -15 6 0 10 7 10 15 0 23 15 18 30 -10 10 -18 16
-22 22 -13 4 7 8 8 8 2 0 -5 7 -19 16 -30 11 -13 14 -14 11 -3 -3 9 1 16 9 16
7 0 11 -4 8 -9 -3 -4 2 -8 10 -8 8 0 19 -8 25 -17 9 -17 11 -17 25 2 14 18 15
19 16 2 0 -10 5 -15 10 -12 6 3 10 -1 10 -10 0 -9 4 -14 9 -10 6 3 14 -3 20
-12 9 -14 12 -15 19 -5 7 10 11 8 16 -10 5 -18 8 -20 15 -9 6 10 11 6 19 -15
6 -18 11 -22 11 -11 1 18 31 25 31 7 0 -5 4 -10 10 -10 5 0 7 7 4 15 -5 11 -2
13 9 9 9 -3 13 -12 10 -20 -3 -8 0 -14 7 -14 6 0 9 -4 5 -9 -3 -5 0 -13 7 -18
25 -15 36 -11 31 11 -3 12 3 7 15 -14 12 -22 26 -34 36 -32 10 2 16 -3 15 -10
-3 -17 11 -48 21 -48 4 0 5 11 2 25 -4 24 -2 25 42 25 25 0 46 -4 46 -10 0 -5
5 -10 10 -10 6 0 10 7 10 15 0 13 4 14 20 5 12 -7 33 -7 60 -1 l40 9 0 -37 c0
-23 3 -31 9 -23 4 7 14 12 21 10 7 -2 14 2 17 9 2 6 -4 13 -14 15 -14 3 -12 5
8 9 14 3 34 2 45 -2 17 -7 17 -8 -3 -8 -15 -1 -23 -7 -22 -18 0 -12 2 -13 6
-5 4 10 8 10 19 1 8 -6 11 -15 8 -20 -5 -8 26 -14 50 -10 5 1 6 -5 3 -13 -4
-9 -2 -18 4 -21 5 -4 7 -11 4 -16 -4 -5 1 -9 9 -9 9 0 16 -5 16 -10 0 -6 8
-10 18 -8 9 2 16 -3 14 -9 -2 -12 11 -18 32 -14 4 1 5 -10 2 -24 -4 -14 -2
-25 4 -25 5 0 10 -7 10 -15 0 -8 6 -15 13 -15 20 0 47 -38 47 -65 0 -17 6 -25
18 -25 14 0 15 -2 2 -9 -8 -6 -18 -7 -24 -4 -5 3 -6 1 -3 -5 4 -5 17 -8 30 -5
18 4 19 3 7 -6 -13 -9 -13 -11 3 -11 9 0 17 -7 17 -15 0 -9 -6 -12 -15 -9 -8
4 -15 1 -15 -4 0 -6 9 -14 21 -17 15 -5 18 -10 10 -18 -14 -14 -15 -30 -1 -22
6 4 10 -6 10 -24 0 -16 -3 -31 -7 -34 -5 -2 -2 -2 6 0 8 2 11 -2 7 -12 -3 -9
-2 -13 3 -10 14 8 20 -7 10 -30 -7 -18 -8 -18 -8 -2 -1 10 -5 16 -9 13 -4 -2
-7 -17 -6 -33 2 -42 3 -45 14 -38 6 3 10 -3 10 -14 0 -12 -3 -21 -7 -21 -5 0
-9 -28 -11 -61 -1 -34 -6 -67 -10 -73 -4 -6 -8 -22 -8 -36 -1 -14 -2 -41 -4
-60 -2 -33 -3 -33 -10 -10 -7 23 -8 22 -10 -12 -4 -57 -4 -58 -20 -68 -12 -8
-12 -10 5 -11 11 0 14 -3 8 -6 -7 -2 -13 -11 -13 -18 0 -7 -4 -15 -10 -17 -5
-1 -11 -17 -13 -34 -2 -17 -8 -37 -12 -44 -4 -7 -7 -39 -6 -71 1 -36 -3 -59
-10 -59 -6 0 -8 -9 -4 -22 5 -19 3 -17 -15 7 -20 28 -21 28 -14 5 12 -39 12
-64 1 -82 -8 -12 -7 -21 4 -34 13 -16 12 -17 -5 -11 -14 6 -17 4 -12 -9 4 -12
2 -15 -9 -10 -12 4 -14 0 -9 -22 4 -15 12 -30 18 -34 10 -7 2 -12 -16 -9 -3 0
-5 -7 -3 -17 2 -9 4 -21 5 -27 0 -5 19 25 41 69 22 43 38 85 35 93 -3 8 -2 11
3 8 5 -3 13 5 17 17 3 13 26 64 49 113 24 50 56 119 73 155 46 100 134 294
187 410 26 58 62 137 80 175 18 39 56 122 85 185 29 63 65 142 80 175 26 55
102 222 235 515 29 63 87 192 130 285 43 94 101 222 130 285 29 63 78 171 109
239 32 68 61 133 66 145 8 21 20 24 177 40 975 100 1743 384 2348 871 120 97
326 299 422 415 301 363 530 802 680 1300 53 178 198 812 190 834 -2 6 -10
-21 -17 -61 -13 -71 -13 -71 -31 -50 -14 17 -21 19 -27 9 -6 -9 -12 -6 -20 13
-7 15 -10 31 -7 36 4 5 1 9 -6 9 -9 0 -9 3 0 14 9 11 9 15 -1 18 -9 3 -13 40
-15 134 -3 140 -4 152 -17 173 -6 9 -5 12 1 8 14 -9 23 16 16 43 -4 14 -8 18
-13 10 -5 -9 -9 -9 -14 -1 -4 6 -2 11 4 11 7 0 10 7 6 18 -3 9 8 1 25 -18 17
-19 26 -25 20 -14 -15 30 -113 113 -199 168 -41 26 -71 42 -67 37 4 -7 0 -8
-11 -4 -14 5 -16 2 -12 -15 4 -12 2 -20 -3 -16 -5 3 -9 -6 -9 -20 0 -15 -5
-25 -12 -23 -6 1 -14 -7 -16 -18 -2 -11 -10 -23 -18 -28 -7 -4 -16 -23 -20
-42 -3 -19 -11 -32 -16 -29 -6 4 -8 -1 -4 -12 3 -11 1 -26 -4 -34 -8 -13 -10
-13 -10 0 0 9 -5 7 -16 -8 -9 -13 -13 -29 -10 -37 3 -9 -6 -21 -24 -32 -17 -9
-30 -24 -30 -32 0 -8 -3 -12 -6 -8 -4 3 -13 0 -20 -8 -16 -16 -19 -29 -4 -20
6 3 10 4 10 1 0 -9 -38 -45 -42 -40 -2 2 -4 -9 -4 -24 1 -23 -3 -27 -24 -25
-14 1 -19 0 -12 -3 16 -7 16 -25 0 -21 -7 1 -12 -2 -13 -8 0 -5 -4 -15 -8 -22
-4 -6 -4 -18 -1 -27 3 -9 1 -16 -5 -16 -6 0 -11 5 -11 12 0 6 -3 8 -7 4 -5 -4
-8 -11 -8 -15 0 -15 -33 -41 -37 -29 -2 6 -10 8 -16 4 -9 -5 -9 -12 -1 -28 9
-18 9 -20 -4 -15 -9 3 -21 -2 -29 -11 -9 -11 -10 -14 0 -8 6 4 12 2 12 -4 0
-6 -10 -15 -22 -20 -32 -13 -58 -35 -58 -48 0 -7 -7 -9 -17 -5 -12 5 -15 2
-10 -10 4 -12 2 -14 -11 -10 -9 3 -14 3 -11 -1 4 -4 -4 -19 -17 -33 -13 -14
-21 -30 -17 -36 4 -6 -2 -8 -16 -4 -15 3 -24 0 -28 -9 -3 -8 -12 -13 -19 -10
-8 3 -13 2 -12 -2 0 -4 -4 -18 -10 -32 -6 -14 -11 -19 -11 -12 -1 6 -8 12 -16
12 -9 0 -12 -6 -9 -15 4 -9 0 -15 -9 -15 -8 0 -20 -7 -27 -15 -10 -12 -15 -13
-21 -4 -4 8 -9 4 -14 -11 -5 -17 -9 -19 -15 -9 -7 10 -12 10 -22 1 -11 -9 -18
-9 -27 1 -9 8 -15 8 -17 2 -4 -10 -130 -12 -140 -2 -9 9 -199 -6 -206 -17 -5
-6 -8 -2 -8 10 0 19 -5 21 -42 19 -24 -2 -48 1 -53 6 -12 9 -61 6 -71 -4 -3
-3 -12 -3 -20 0 -8 3 -14 -1 -14 -11 0 -21 -36 -41 -43 -23 -3 7 -6 5 -6 -5
-1 -10 -8 -18 -17 -18 -14 0 -15 2 -3 17 10 11 10 14 2 9 -9 -5 -13 1 -13 18
0 20 -4 24 -17 19 -11 -4 -14 -3 -9 5 4 7 2 12 -3 12 -6 0 -11 -4 -11 -10 0
-5 -8 -10 -17 -10 -17 -1 -17 -1 0 -11 9 -5 17 -15 17 -21 0 -7 -5 -7 -14 1
-10 8 -16 9 -21 1 -10 -16 -23 -12 -21 8 1 21 -36 24 -41 2 -4 -13 -3 -13 7 0
10 13 11 13 7 0 -6 -24 -35 -24 -42 0 -4 13 -12 19 -21 16 -8 -3 -14 -2 -14 2
0 16 -72 6 -81 -11 -14 -23 -51 -23 -42 1 6 15 5 16 -12 2 -17 -14 -18 -13
-12 3 3 9 2 17 -3 17 -6 0 -10 -4 -10 -9 0 -8 -27 -18 -67 -27 -7 -1 -13 2
-13 7 0 15 -44 28 -52 16 -4 -7 -11 -7 -21 2 -10 7 -17 8 -21 2 -4 -5 3 -16
15 -24 13 -9 16 -17 10 -22 -6 -3 -14 1 -17 9 -8 21 -34 21 -34 0 0 -12 -6
-15 -21 -11 -15 4 -19 2 -15 -9 6 -16 -9 -19 -19 -4 -8 13 -35 13 -35 0 0 -6
10 -15 23 -19 20 -8 19 -9 -9 -9 -17 1 -37 -3 -44 -7 -7 -4 -15 -3 -19 3 -9
15 -83 -17 -77 -34 3 -8 -1 -14 -9 -14 -8 0 -15 6 -15 13 0 9 -2 9 -8 -1 -5
-7 -26 -11 -49 -10 -27 1 -47 -5 -58 -15 -9 -10 -25 -17 -36 -17 -11 0 -18 -4
-14 -10 3 -5 -12 -9 -37 -8 -57 1 -78 -5 -90 -27 -10 -17 -12 -17 -29 6 -10
13 -19 18 -19 12 0 -16 -30 -17 -30 -1 0 13 -14 2 -16 -13 -1 -5 -2 -13 -3
-17 -1 -9 -51 -9 -66 0 -14 9 -65 -2 -65 -14 0 -5 -4 -6 -10 -3 -6 3 -7 -1 -4
-9 4 -10 1 -16 -9 -16 -8 0 -18 12 -22 27 -4 19 -9 23 -15 14 -4 -8 -13 -10
-21 -6 -9 6 -11 3 -6 -8 4 -11 1 -17 -8 -17 -8 0 -15 6 -15 13 0 9 -3 8 -9 -2
-7 -11 -9 -11 -13 0 -4 11 -9 12 -27 2 -28 -17 -32 -16 -24 5 6 16 5 16 -14 0
-22 -21 -55 -23 -85 -7 -12 6 -18 7 -14 1 3 -5 -3 -12 -14 -15 -10 -3 -21 0
-23 7 -3 7 -12 4 -26 -8 -17 -15 -20 -16 -16 -4 5 12 0 16 -19 14 -14 0 -26
-6 -26 -13 0 -6 -8 -9 -19 -6 -10 3 -21 0 -25 -5 -8 -13 -68 -5 -78 11 -6 9
-8 8 -8 -3 0 -12 -2 -13 -9 -1 -7 11 -9 11 -14 0 -3 -11 -9 -11 -23 -3 -15 9
-22 8 -31 -5 -11 -14 -12 -14 -13 -1 0 12 -13 15 -57 15 -32 0 -61 -4 -64 -9
-4 -4 -17 -2 -30 5 -35 20 -72 21 -65 3 3 -8 -1 -14 -9 -14 -9 0 -12 6 -8 17
7 17 -8 16 -75 -3 -17 -5 -21 -3 -17 9 5 11 0 13 -18 10 -19 -4 -26 0 -30 14
-4 16 -5 16 -6 1 -1 -20 -31 -25 -31 -5 0 9 -3 8 -9 -2 -7 -11 -10 -9 -16 8
-3 12 -10 19 -15 16 -5 -3 -11 1 -14 7 -3 7 -4 4 -1 -7 7 -28 -42 -31 -50 -4
-4 11 -15 19 -28 19 -16 0 -18 -3 -8 -9 8 -5 9 -11 3 -15 -5 -3 -12 1 -16 9
-3 9 -18 15 -37 15 -18 0 -41 8 -51 17 -17 15 -21 15 -29 3 -6 -10 -11 -12
-16 -4 -5 6 -21 10 -38 9 -16 -1 -34 1 -40 4 -5 3 -20 6 -34 7 -13 2 -28 9
-33 16 -6 10 -10 10 -18 -2 -7 -10 -12 -12 -17 -4 -11 15 -83 26 -83 13 0 -6
-9 -7 -21 -4 -37 12 -53 13 -71 3 -13 -6 -18 -5 -18 4 0 9 -3 9 -10 -2 -5 -8
-10 -10 -10 -5 0 6 -8 11 -17 12 -10 0 -34 4 -53 7 -19 4 -46 6 -60 5 -14 -1
-56 -1 -95 0 -38 1 -82 2 -97 2 -16 0 -28 4 -28 10 0 6 -5 7 -12 2 -18 -11
-92 -10 -100 2 -5 6 -12 5 -20 -3 -16 -16 -31 -15 -25 2 5 11 -5 14 -46 13
-29 -1 -55 -6 -59 -12 -5 -6 -8 -6 -8 2 0 7 -15 10 -45 7 -25 -3 -45 -1 -45 3
0 5 -48 9 -107 11 -58 1 -110 5 -115 8 -5 3 -35 8 -66 10 -117 8 -172 16 -172
25 0 5 -24 7 -55 3 -32 -3 -55 -1 -55 4 0 5 -15 9 -32 9 -18 0 -55 4 -83 8
-27 5 -56 8 -62 7 -7 -2 -13 1 -13 6 0 5 -19 9 -43 9 -24 0 -53 6 -66 12 -12
7 -25 10 -28 7 -4 -3 -12 -1 -20 5 -10 9 -13 8 -13 -2 0 -11 -2 -11 -9 -1 -4
7 -12 12 -17 10 -5 -1 -18 3 -29 8 -11 6 -49 12 -85 14 -119 6 -130 7 -137 13
-3 4 0 7 8 7 11 0 11 2 -1 10 -19 12 -33 13 -26 1 3 -5 -1 -11 -9 -15 -8 -3
-15 -1 -15 5 0 6 -5 7 -11 3 -6 -3 -15 -1 -19 7 -5 7 -27 14 -51 15 -23 1 -45
6 -48 11 -3 4 -26 8 -51 8 -25 -1 -53 3 -62 7 -14 7 -82 20 -163 32 -11 1 -28
6 -37 10 -20 9 -45 14 -76 15 -13 1 -21 5 -18 10 3 4 -11 8 -32 9 -57 1 -155
13 -172 21 -8 4 -31 7 -50 6 -19 -1 -29 0 -22 2 27 10 9 19 -33 17 -35 -2 -45
0 -45 13 0 11 -6 14 -24 9 -14 -3 -28 -1 -32 5 -4 8 -9 7 -16 -2 -7 -11 -11
-11 -15 -1 -2 6 -11 12 -20 12 -29 0 -163 43 -163 53 0 5 -6 7 -14 4 -7 -3
-23 1 -34 9 -11 7 -28 15 -39 17 -10 2 -34 13 -53 25 -19 12 -39 20 -45 19 -5
-2 -18 5 -29 14 -10 10 -23 16 -27 13 -4 -2 -10 0 -14 6 -3 5 -17 10 -31 10
-13 0 -24 5 -24 10 0 17 -52 33 -60 19 -6 -8 -9 -8 -14 0 -4 6 -12 9 -17 6 -5
-4 -9 -2 -9 2 0 5 -34 17 -76 28 -41 10 -77 22 -80 27 -3 5 -15 6 -26 2 -14
-4 -18 -2 -14 5 4 6 2 9 -7 5 -7 -2 -27 1 -43 7 -16 7 -36 13 -44 14 -48 8
-75 16 -96 29 -12 9 -31 13 -40 9 -13 -5 -15 -3 -9 7 6 9 -1 12 -28 8 -20 -2
-33 0 -31 4 9 14 -7 30 -19 20 -21 -17 -52 -18 -64 -2 -10 13 -15 13 -34 1
-17 -10 -24 -10 -27 -2 -5 14 -49 15 -57 1 -9 -14 -25 -12 -25 3 0 8 -24 13
-82 14 -46 1 -84 6 -86 11 -2 6 -12 8 -22 5 -12 -3 -22 1 -25 9 -4 10 -16 13
-35 10 -19 -3 -30 0 -30 8 0 8 -11 11 -30 8 -16 -3 -30 -2 -30 1 0 9 -64 36
-78 33 -8 -2 -20 2 -28 9 -11 9 -14 8 -14 -2 -1 -9 -5 -8 -15 5 -8 11 -15 17
-15 13 0 -4 -10 -3 -21 4 -16 8 -23 8 -29 -1 -26 -43 -26 311 0 585 40 417 73
643 142 985 l52 255 0 205 c1 191 -1 209 -22 261 -48 119 -156 198 -282 206
-57 4 -72 1 -120 -24 -159 -82 -279 -385 -350 -888 -17 -121 -37 -265 -45
-320 -80 -551 -80 -1149 0 -1520 56 -261 92 -373 188 -580 190 -413 502 -791
952 -1156 221 -179 521 -379 925 -616 392 -229 589 -321 770 -358 l65 -13 -75
-1 c-104 -1 -208 26 -415 109 -473 189 -1043 502 -1387 761 -557 421 -935 914
-1116 1454 -70 210 -142 582 -142 736 0 65 -21 164 -31 147 -6 -9 -9 -8 -9 7
0 17 -2 17 -10 5 -7 -12 -10 -12 -10 -1 0 7 -6 11 -14 8 -8 -3 -17 -1 -19 6
-3 9 -8 8 -20 -2 -14 -11 -17 -11 -17 -1 0 8 -3 11 -6 8 -3 -4 -21 0 -40 8
-19 8 -39 12 -44 9 -6 -4 -10 -1 -10 4 0 15 -27 14 -32 0 -3 -8 -9 -6 -20 4
-9 9 -25 14 -37 12 -12 -2 -21 0 -21 5 0 5 -9 7 -20 5 -12 -2 -23 2 -27 10 -3
8 -9 15 -15 15 -5 0 -7 -4 -3 -9 3 -5 1 -12 -5 -16 -5 -3 -10 1 -10 9 0 20
-29 21 -36 1 -14 -35 -24 2 -24 83 0 229 78 870 150 1237 58 298 64 344 64
530 1 193 -11 253 -69 342 -26 38 -51 61 -98 87 -231 129 -391 5 -516 -399
-61 -199 -104 -453 -176 -1050 -37 -303 -46 -862 -19 -1108 91 -839 444 -1465
1180 -2093 83 -71 170 -143 195 -160 24 -17 78 -55 119 -85 230 -167 696 -453
985 -606 175 -93 283 -135 408 -159 l72 -14 -100 5 c-57 2 -128 12 -165 23
-167 49 -636 271 -905 427 -55 32 -125 73 -155 90 -30 18 -79 46 -108 64 -77
45 -320 208 -367 246 -345 273 -558 482 -750 735 -356 471 -531 955 -585 1625
-7 77 -14 142 -16 144 -2 2 -4 -1 -4 -7 0 -6 -11 -9 -24 -6 -14 2 -28 0 -31
-6 -4 -7 -13 -7 -26 0 -14 8 -19 7 -19 -2 0 -9 -3 -9 -10 2 -6 9 -10 10 -10 3
0 -7 -15 -11 -43 -9 -24 2 -75 -2 -112 -9 -42 -8 -77 -10 -91 -5 -20 8 -23 5
-28 -18 -6 -34 2 459 9 513 3 22 12 110 20 195 24 237 82 626 119 799 50 225
67 347 73 511 9 271 -42 399 -189 473 -72 37 -153 45 -211 23 -53 -20 -131
-95 -174 -167 -71 -118 -142 -345 -192 -609 -33 -171 -78 -493 -96 -675 -3
-33 -8 -73 -10 -90 -3 -16 -12 -122 -20 -235 -72 -984 119 -1739 606 -2393
193 -259 507 -576 778 -786 56 -44 322 -219 441 -291 50 -30 139 -85 198 -122
287 -179 372 -225 472 -252 34 -9 45 -15 29 -15 -51 -2 -178 38 -275 86 -161
78 -551 282 -659 343 -447 253 -855 612 -1160 1019 -196 261 -351 567 -454
896 -50 160 -73 268 -105 500 -38 268 -43 303 -45 270 -1 -21 -4 -26 -10 -16
-5 8 -11 9 -15 3 -4 -6 -25 -9 -49 -6 -23 3 -65 6 -93 8 -28 2 -56 6 -63 10
-7 5 -11 -1 -12 -16 -1 -17 -3 -15 -11 12 -15 50 -3 420 21 675 31 322 67 573
127 880 89 454 95 665 23 813 -65 133 -240 204 -354 145 -51 -27 -111 -91
-153 -165 -37 -65 -102 -239 -131 -355 -46 -179 -113 -616 -142 -923 -5 -63
-14 -155 -19 -205 -5 -49 -7 -241 -6 -425 3 -350 16 -494 66 -742 98 -482 333
-957 665 -1343 212 -247 454 -476 689 -654 123 -93 639 -437 781 -521 50 -29
119 -66 155 -81 69 -30 64 -38 -10 -15 -128 39 -610 297 -880 470 -494 316
-928 745 -1183 1168 -82 136 -180 331 -237 471 l-35 86 -25 -16 c-23 -15 -24
-15 -12 0 8 9 11 21 8 26 -4 5 -2 12 4 16 5 3 10 1 10 -6 0 -7 2 -10 5 -7 3 3
2 15 -3 28 -7 19 -10 20 -15 7 -8 -21 -34 -12 -42 13 -4 11 -12 17 -21 13 -7
-3 -14 0 -14 6 0 6 -7 11 -16 11 -12 0 -15 6 -11 23 5 19 4 20 -6 6 -10 -13
-15 -14 -24 -4 -7 7 -9 16 -5 19 3 4 0 5 -8 2 -8 -3 -21 -2 -29 3 -13 8 -13
12 0 27 8 10 9 15 2 11 -6 -4 -14 -1 -16 5 -3 7 -6 -3 -7 -22 -2 -22 -4 -28
-7 -15 -3 11 -11 27 -19 36 -8 9 -11 19 -7 24 5 4 -2 6 -14 3 -14 -4 -24 0
-27 9 -4 8 -13 13 -21 9 -9 -3 -15 0 -15 9 0 10 6 12 18 8 15 -6 15 -5 3 11
-11 13 -16 14 -22 4 -5 -7 -9 -22 -9 -32 -1 -95 -68 303 -81 479 -12 171 -7
512 11 700 25 264 106 810 145 980 54 235 79 413 79 560 1 149 -8 198 -47 256
-43 64 -145 101 -202 75z"/>
<path d="M13898 25741 c-101 -80 -165 -340 -243 -986 -42 -350 -55 -545 -55
-815 0 -358 21 -568 86 -850 31 -134 33 -139 174 -376 198 -332 434 -627 752
-940 160 -158 308 -277 543 -436 134 -92 405 -261 405 -253 0 2 -37 29 -82 61
-299 210 -611 497 -790 730 -106 138 -198 281 -281 435 -100 187 -215 513
-251 714 -23 125 -38 188 -48 200 -6 6 -7 2 -3 -10 l7 -20 -17 20 c-9 11 -14
28 -11 38 2 9 0 15 -5 11 -5 -3 -9 3 -10 13 0 16 -1 16 -9 -2 -8 -18 -9 -18
-9 -2 -1 28 -26 48 -40 34 -15 -15 -14 5 2 22 10 11 10 13 0 7 -7 -4 -13 -2
-13 4 0 7 -8 9 -19 5 -11 -3 -22 -1 -26 5 -3 6 3 10 14 10 31 0 25 17 -8 25
-29 6 -39 23 -42 75 -1 14 -5 3 -8 -25 -14 -108 -23 259 -12 470 19 366 56
680 136 1165 40 242 47 321 43 440 -5 133 -22 184 -71 217 -50 34 -79 37 -109
14z"/>
<path d="M26045 25285 c-53 -19 -118 -92 -145 -163 -18 -45 -25 -96 -34 -248
-13 -219 -9 -260 32 -347 69 -148 112 -174 532 -322 319 -112 393 -140 790
-293 201 -78 300 -119 670 -280 229 -100 282 -127 445 -231 208 -133 255 -165
255 -173 0 -4 5 -8 11 -8 5 0 8 4 5 9 -6 10 23 101 47 148 14 27 23 31 89 42
261 42 461 118 552 208 46 46 48 50 42 92 -9 64 -48 125 -140 216 -62 62 -80
85 -77 104 2 17 -1 21 -10 15 -7 -4 -3 6 9 23 12 17 22 42 22 55 0 13 7 51 16
83 8 33 17 71 19 85 10 69 26 135 34 143 5 5 7 16 4 23 -3 8 0 20 6 28 8 10 0
20 -37 47 -51 37 -58 37 -53 0 2 -15 -1 -21 -8 -16 -6 3 -8 11 -5 17 5 7 2 8
-5 4 -9 -6 -9 -12 3 -25 13 -14 14 -24 3 -66 -7 -28 -12 -62 -12 -77 1 -16 -2
-28 -5 -28 -4 0 -8 -23 -9 -52 -1 -29 -6 -55 -12 -59 -6 -3 -9 -15 -8 -25 2
-11 -1 -28 -7 -39 -12 -23 -12 -34 0 -55 5 -8 6 -12 1 -8 -4 4 -14 1 -21 -7
-15 -15 -19 -29 -6 -21 5 3 9 -1 9 -8 0 -11 -4 -12 -18 -3 -10 6 -15 15 -12
21 3 5 1 6 -5 2 -6 -3 -46 16 -89 42 -232 144 -469 266 -918 472 -99 45 -384
166 -495 209 -52 21 -105 43 -116 49 -49 26 -638 238 -1006 362 -220 74 -267
82 -343 55z"/>
<path d="M19125 17439 c-22 -18 -38 -71 -90 -304 -3 -11 1 -7 9 9 8 19 16 25
20 17 7 -11 0 -136 -9 -163 -7 -20 -55 -360 -54 -383 1 -11 -6 -58 -15 -105
-21 -111 -20 -120 5 -120 11 0 18 -4 14 -9 -3 -5 -1 -12 5 -16 5 -3 10 1 10 9
0 9 5 16 11 16 5 0 7 -5 3 -12 -5 -7 -2 -9 9 -5 9 3 18 1 21 -6 2 -7 5 -3 6 8
1 18 2 18 15 -5 13 -22 14 -23 15 -5 0 15 2 17 9 6 5 -7 14 -10 20 -7 6 4 11
3 11 -2 0 -6 10 -8 23 -6 12 2 16 2 10 -2 -30 -14 -10 -22 22 -8 32 13 35 13
35 -3 0 -14 2 -15 9 -4 5 8 11 9 15 3 4 -6 22 -8 41 -5 20 3 35 1 35 -4 0 -5
14 -8 30 -5 18 2 30 0 30 -7 0 -7 13 -9 34 -5 19 3 36 1 39 -3 3 -4 37 -8 76
-8 54 0 70 -3 66 -13 -3 -7 0 -10 5 -7 5 3 18 2 28 -4 11 -6 24 -6 36 1 14 8
17 8 11 -2 -6 -9 4 -11 37 -9 33 3 44 1 41 -8 -6 -16 2 -16 28 -3 12 7 19 7
19 1 0 -5 9 -8 21 -6 15 3 19 0 15 -11 -5 -12 -2 -12 15 -3 13 6 35 8 58 3 20
-4 51 -7 69 -8 21 0 32 -5 32 -14 0 -11 3 -12 14 -3 11 9 15 8 20 -4 4 -11 2
-14 -7 -9 -6 4 -3 -2 8 -13 11 -12 22 -20 25 -20 3 1 17 -7 33 -17 20 -14 25
-22 17 -31 -8 -9 -6 -18 7 -31 15 -15 17 -34 15 -138 -1 -72 2 -115 7 -106 5
8 11 89 14 180 7 185 14 222 61 325 19 41 28 72 22 73 -20 2 -420 62 -451 67
-16 3 -66 10 -110 16 -44 5 -102 14 -130 19 -27 6 -144 23 -260 40 -281 40
-285 41 -285 55 0 44 129 178 207 215 l42 19 273 -40 c150 -22 399 -58 552
-80 154 -22 283 -42 287 -45 12 -7 27 47 53 186 14 74 35 183 48 242 21 99 21
109 6 124 -11 12 -82 25 -254 50 -274 38 -794 115 -967 142 -115 19 -118 19
-142 1z"/>
<path d="M20308 16403 c-49 -107 -60 -168 -56 -303 l3 -115 49 243 c27 133 47
245 44 247 -3 3 -21 -30 -40 -72z"/>
<path d="M18867 15912 c-62 -316 -74 -396 -88 -611 -10 -139 -10 -203 0 -306
21 -220 70 -448 119 -560 16 -38 17 -5 22 835 3 481 3 878 0 882 -3 4 -27
-104 -53 -240z"/>
<path d="M20141 15778 c0 -32 -7 -58 -17 -69 -9 -10 -13 -22 -10 -27 3 -6 -2
-13 -11 -16 -11 -5 -13 -10 -7 -14 7 -4 9 -28 4 -64 -3 -32 -2 -58 2 -58 4 0
8 -9 8 -20 0 -11 -6 -18 -12 -16 -7 1 -10 1 -5 -1 4 -3 7 -14 7 -25 0 -15 4
-18 13 -12 7 5 6 2 -3 -6 -16 -16 -25 -74 -9 -65 5 4 9 -9 9 -27 0 -18 -4 -28
-8 -22 -4 7 -8 -25 -8 -70 l-2 -81 19 120 c10 65 26 146 34 178 15 60 19 347
4 347 -3 0 -7 -23 -8 -52z"/>
<path d="M18388 14165 c128 -142 292 -250 479 -315 l51 -18 4 51 c3 49 -6 256
-10 230 -1 -9 -9 -10 -28 -3 -14 6 -30 8 -35 4 -5 -3 -23 2 -41 10 -36 19 -41
20 -33 6 10 -16 -5 -12 -23 6 -15 15 -16 15 -22 -2 -6 -17 -7 -17 -17 0 -6 10
-25 19 -49 22 -21 3 -50 6 -64 8 -14 2 -27 4 -30 5 -3 2 -16 4 -30 6 -14 1
-50 9 -80 18 -30 8 -67 15 -81 14 l-27 -2 36 -40z"/>
<path d="M22920 13265 c-96 -12 -166 -24 -155 -27 17 -5 17 -6 2 -7 -14 -1
-16 -7 -11 -28 9 -39 14 -41 22 -13 5 18 9 3 13 -50 3 -41 2 -79 -3 -84 -12
-15 -10 -28 4 -20 8 5 9 2 5 -9 -3 -10 -3 -17 1 -17 4 0 6 -15 6 -32 -1 -25
-5 -32 -18 -30 -9 2 -16 -2 -16 -8 0 -5 8 -10 18 -11 10 0 12 -3 5 -6 -17 -6
-16 -18 4 -38 9 -9 12 -20 7 -23 -11 -8 -11 -32 -1 -49 4 -7 7 -29 6 -50 -3
-84 14 -232 27 -237 8 -3 14 -15 14 -26 0 -11 6 -20 13 -20 9 0 9 -2 -1 -8
-18 -12 -4 -45 16 -37 12 4 12 3 3 -9 -9 -11 -8 -15 4 -20 8 -3 14 -9 13 -13
-4 -14 13 -53 23 -53 6 0 7 -5 3 -11 -8 -13 15 -89 28 -89 4 0 8 -11 8 -25 0
-14 7 -28 16 -32 10 -4 12 -8 4 -13 -11 -7 -3 -40 10 -40 5 0 6 -9 3 -20 -3
-11 0 -26 6 -33 6 -8 8 -17 4 -20 -3 -4 -1 -7 5 -7 6 0 16 -16 22 -35 6 -19
16 -35 21 -35 5 0 9 -5 9 -11 0 -5 -4 -7 -10 -4 -16 10 -12 -22 5 -39 8 -8 15
-21 15 -28 0 -10 3 -9 10 2 7 11 10 3 10 -30 0 -55 25 -151 41 -161 7 -4 13
-23 13 -42 1 -19 4 -33 7 -31 4 2 9 -10 11 -26 3 -17 0 -30 -6 -30 -6 0 -5 -4
3 -9 8 -5 21 -7 30 -4 13 4 13 3 2 -5 -16 -11 -7 -67 9 -57 6 4 7 -2 2 -16
-12 -32 -3 -79 14 -72 19 7 18 -7 -3 -22 -11 -8 -13 -14 -5 -19 7 -4 12 -2 12
3 0 6 5 11 11 11 6 0 9 -6 6 -14 -3 -8 0 -36 7 -63 7 -26 11 -54 8 -62 -3 -9
0 -12 9 -9 11 4 14 -8 14 -58 -1 -35 2 -58 6 -53 3 6 9 -1 13 -17 5 -18 3 -30
-6 -36 -10 -8 -10 -11 0 -15 6 -2 12 -13 12 -24 0 -11 7 -19 16 -19 14 0 15
-2 3 -17 -11 -13 -11 -15 -1 -9 10 6 12 -1 8 -33 -3 -23 -1 -41 5 -41 5 0 9
-13 9 -28 0 -15 5 -33 12 -40 8 -8 8 -15 -3 -28 -11 -14 -11 -18 5 -29 10 -8
15 -19 11 -25 -4 -6 -2 -16 4 -23 15 -18 26 -111 12 -103 -16 10 -4 -75 13
-88 15 -12 48 -115 40 -127 -2 -4 1 -27 7 -51 14 -56 18 -90 20 -158 1 -30 6
-58 12 -62 6 -3 11 -31 11 -62 1 -38 5 -56 14 -56 14 0 16 -16 3 -25 -6 -3 -4
-17 4 -32 15 -29 10 -48 -5 -23 -8 13 -10 12 -10 -2 0 -9 7 -21 16 -26 13 -7
15 -21 12 -71 -3 -33 -1 -61 4 -61 4 0 6 -11 4 -26 -3 -16 0 -27 10 -31 20 -7
18 -33 -3 -33 -15 0 -16 -2 -3 -10 9 -6 15 -27 16 -62 0 -29 4 -68 8 -85 7
-29 5 -32 -11 -26 -13 4 -12 1 6 -15 13 -12 20 -22 15 -22 -5 0 -8 -24 -6 -52
4 -71 11 -100 22 -93 6 3 10 -4 9 -17 -1 -51 16 -472 23 -555 2 -29 1 -53 -3
-53 -7 0 -4 -32 11 -139 5 -36 7 -68 4 -73 -3 -4 0 -18 7 -30 7 -13 12 -58 11
-107 -1 -47 3 -90 8 -96 6 -7 4 -21 -5 -38 -8 -15 -10 -27 -4 -27 13 0 11
-104 -3 -118 -9 -9 -9 -12 0 -12 8 0 12 -13 11 -32 -1 -18 -1 -37 1 -43 1 -5
2 -12 1 -15 -6 -15 -3 -169 3 -188 5 -14 3 -22 -4 -22 -7 0 -9 -12 -4 -35 5
-26 3 -35 -7 -35 -9 0 -7 -5 5 -11 15 -9 16 -13 5 -21 -8 -5 -10 -11 -4 -14
18 -7 3 -335 -16 -342 -12 -5 -11 -32 1 -32 6 0 10 -9 10 -20 0 -11 -3 -20 -7
-20 -5 0 -9 -71 -11 -158 -1 -86 -7 -171 -11 -189 -5 -17 -6 -34 -3 -38 9 -9
2 -76 -10 -99 -6 -12 -6 -16 0 -12 5 3 12 -5 14 -18 4 -18 1 -23 -9 -19 -11 4
-13 -5 -10 -41 2 -25 1 -43 -1 -41 -3 3 -11 0 -19 -6 -11 -10 -11 -15 -1 -27
7 -9 8 -13 2 -9 -8 4 -11 -12 -11 -51 0 -31 -3 -67 -7 -79 -5 -16 -3 -23 5
-23 7 0 5 -6 -6 -14 -13 -9 -16 -19 -10 -32 7 -17 8 -17 14 6 5 16 9 21 14 13
5 -7 4 -21 -1 -30 -5 -10 -7 -24 -5 -30 3 -8 -3 -13 -14 -13 -16 0 -18 -7 -16
-52 1 -29 5 -61 8 -70 9 -23 -4 -23 -22 0 -13 15 -13 15 -3 -6 6 -13 8 -33 4
-45 -5 -12 -7 -28 -5 -36 2 -9 -3 -12 -15 -7 -15 6 -15 5 0 -19 16 -24 16 -25
-6 -25 -16 0 -19 -3 -10 -9 7 -4 12 -12 11 -17 -2 -5 1 -20 5 -33 6 -18 4 -26
-7 -33 -9 -5 -14 -15 -11 -23 4 -8 1 -15 -6 -15 -7 0 -10 -6 -7 -14 3 -8 1
-16 -6 -19 -7 -2 -10 -22 -8 -52 2 -31 -2 -51 -10 -56 -7 -4 -14 -18 -14 -31
-1 -13 -5 -29 -9 -36 -4 -7 -2 -12 4 -12 6 0 8 -5 5 -10 -4 -6 -10 -8 -14 -5
-5 2 -6 -7 -3 -22 3 -18 1 -24 -7 -19 -6 4 -11 2 -11 -3 0 -6 5 -11 10 -11 19
0 10 -49 -12 -65 -18 -13 -20 -18 -9 -22 10 -4 7 -9 -10 -19 -13 -7 -19 -13
-13 -14 18 0 13 -60 -5 -61 -12 0 -11 -3 4 -9 16 -7 16 -9 4 -9 -18 -1 -33
-27 -23 -42 3 -5 1 -9 -5 -9 -6 0 -8 -7 -5 -15 7 -18 -7 -20 -24 -3 -9 9 -12
9 -12 0 0 -7 6 -12 13 -12 8 0 7 -4 -3 -11 -13 -9 -12 -10 3 -5 25 8 22 -30
-3 -44 -11 -6 -17 -16 -14 -22 5 -7 1 -9 -9 -5 -22 8 -22 -9 1 -23 15 -10 15
-10 -3 -8 -18 3 -20 -2 -17 -36 3 -33 1 -38 -13 -33 -10 4 -14 3 -10 -4 4 -5
2 -16 -4 -23 -6 -7 -8 -21 -5 -31 6 -15 4 -16 -15 -5 -18 9 -22 9 -20 -2 5
-26 -14 -90 -27 -95 -8 -3 -14 -9 -14 -15 0 -5 5 -6 10 -3 6 3 10 2 10 -4 0
-5 -6 -11 -12 -14 -7 -2 -13 -16 -13 -32 0 -20 -6 -29 -19 -31 -11 -1 -28 -11
-38 -22 -15 -14 -17 -24 -9 -44 5 -15 6 -30 0 -39 -7 -11 -9 -10 -9 4 0 10 -4
16 -9 13 -5 -3 -7 -15 -4 -26 4 -15 1 -18 -16 -15 -18 3 -21 -1 -21 -27 0 -24
-3 -29 -16 -24 -12 4 -15 2 -11 -9 4 -8 2 -17 -4 -20 -5 -4 -7 -11 -4 -16 4
-5 1 -9 -4 -9 -6 0 -11 6 -12 13 0 6 -5 1 -10 -12 -7 -17 -6 -27 2 -31 7 -5 5
-10 -7 -14 -10 -4 -21 -1 -26 6 -8 13 -12 -15 -9 -54 1 -9 -3 -19 -9 -23 -5
-3 -10 -1 -10 6 0 8 -4 8 -16 -2 -8 -7 -13 -21 -10 -31 3 -15 2 -17 -9 -8 -10
9 -16 7 -24 -8 -6 -11 -7 -23 -3 -26 4 -4 -7 -5 -23 -2 -17 3 -24 3 -18 0 10
-4 9 -13 -3 -36 -8 -16 -18 -27 -21 -24 -9 8 -33 -14 -33 -30 0 -22 -40 -57
-66 -57 -29 1 -33 -30 -6 -47 14 -9 12 -10 -10 -5 -21 4 -28 1 -28 -9 0 -26
-20 -28 -29 -4 -8 19 -10 15 -12 -27 -1 -27 -4 -41 -6 -31 -4 15 -7 16 -14 5
-8 -12 -11 -12 -20 1 -8 12 -9 11 -4 -6 5 -18 1 -21 -20 -21 -16 0 -25 5 -25
16 -1 14 -2 14 -11 -1 -5 -10 -9 -19 -7 -20 5 -6 -36 -47 -43 -42 -4 2 -10 -5
-14 -16 -4 -11 -15 -20 -26 -20 -16 0 -19 -5 -15 -22 4 -16 1 -14 -10 7 -12
24 -14 26 -10 6 3 -17 0 -25 -14 -28 -10 -3 -21 -10 -23 -17 -3 -6 -18 -11
-33 -10 -21 1 -31 -5 -36 -20 -6 -20 -6 -20 -7 2 -1 12 -6 22 -12 22 -6 0 -8
-9 -4 -20 6 -19 2 -20 -84 -20 -76 0 -89 2 -85 15 4 8 1 15 -5 15 -6 0 -11 -8
-11 -17 0 -15 -2 -16 -10 -3 -8 13 -10 13 -10 -1 0 -9 -7 -20 -16 -23 -22 -9
-23 -8 -20 18 2 19 -2 23 -25 24 -21 0 -29 -5 -33 -24 -6 -22 -11 -24 -70 -24
-42 0 -66 4 -69 13 -4 9 -6 9 -6 -1 -1 -10 -4 -10 -16 2 -17 16 -21 41 -5 31
6 -3 10 -1 10 4 0 6 -5 11 -11 11 -5 0 -7 5 -4 10 3 6 1 10 -4 10 -6 0 -11
-13 -11 -30 0 -23 -4 -30 -20 -30 -11 0 -20 7 -20 15 0 9 -9 15 -22 14 -17 -1
-19 -2 -5 -6 9 -2 17 -9 17 -14 0 -5 -45 -9 -100 -9 -80 0 -100 3 -100 14 0 8
6 17 13 20 6 3 -5 4 -25 2 -23 -2 -38 1 -38 8 0 6 -4 5 -9 -2 -11 -17 -21 -17
-32 0 -7 11 -9 11 -9 -1 0 -10 -5 -10 -25 3 -15 10 -25 12 -25 6 0 -7 -8 -4
-17 6 -16 15 -17 15 -24 -2 -7 -17 -8 -17 -8 -2 -1 11 -6 15 -16 12 -21 -8
-51 16 -33 27 7 4 9 11 5 16 -5 4 -12 1 -17 -7 -7 -12 -12 -11 -30 5 -17 16
-20 16 -15 2 4 -9 15 -19 26 -22 20 -7 27 -25 9 -25 -5 0 -10 5 -10 10 0 6 -7
10 -15 10 -9 0 -18 7 -21 15 -4 8 -13 15 -22 15 -13 0 -12 -3 3 -20 10 -11 13
-20 7 -20 -6 0 -14 4 -17 10 -3 5 -16 11 -28 11 -17 1 -18 2 -4 6 19 5 24 25
5 22 -31 -4 -47 2 -51 19 -4 15 -5 15 -6 -2 -1 -15 -6 -17 -23 -11 -13 5 -43
9 -68 10 -24 1 -46 7 -47 12 -2 6 7 8 22 6 19 -4 25 -1 25 11 0 13 -4 15 -19
6 -14 -7 -22 -7 -27 1 -4 8 -9 7 -15 -2 -7 -11 -11 -10 -23 6 -8 11 -12 23
-10 27 9 14 -31 9 -52 -7 -27 -18 -35 -11 -27 26 3 16 4 29 2 29 -2 0 -18 -4
-36 -9 -25 -7 -33 -6 -37 6 -3 8 -10 12 -15 9 -5 -4 -12 0 -14 6 -4 10 -6 10
-6 1 -2 -21 -21 -15 -31 10 -8 20 -9 20 -9 3 -1 -29 -20 -6 -23 27 -2 28 -6
30 -50 27 -19 -1 -28 3 -28 14 0 8 -5 18 -12 22 -7 5 -9 2 -5 -9 5 -12 0 -15
-21 -11 -17 3 -22 1 -14 -4 14 -9 5 -45 -9 -36 -5 3 -9 -2 -9 -11 0 -9 5 -13
10 -10 6 3 10 1 10 -4 0 -6 -4 -11 -10 -11 -5 0 -10 -7 -10 -16 0 -14 -2 -15
-17 -3 -14 12 -15 12 -11 -1 6 -18 -22 -70 -38 -70 -6 0 -17 -14 -24 -30 -7
-17 -21 -35 -32 -41 -13 -7 -17 -16 -13 -30 5 -14 2 -17 -8 -13 -8 3 -18 0
-22 -5 -3 -6 -11 -8 -17 -5 -6 4 -8 2 -4 -4 3 -6 2 -13 -3 -17 -6 -3 -8 -12
-4 -20 4 -11 -2 -15 -21 -15 -14 0 -26 -5 -26 -11 0 -6 -9 -9 -20 -6 -16 4
-20 0 -20 -17 0 -40 -30 -27 -32 13 -6 105 -14 -285 -16 -816 -3 -562 -2 -603
14 -603 10 0 15 -2 12 -5 -9 -9 -118 17 -119 29 0 6 0 109 0 228 0 120 -3 218
-7 218 -4 0 -8 30 -8 68 -4 233 -15 591 -21 672 -4 52 -7 122 -7 155 -1 33 -5
63 -11 67 -6 5 -5 8 3 8 6 0 12 10 12 23 0 18 -2 19 -11 7 -8 -11 -9 -8 -4 14
5 26 4 28 -16 23 -14 -4 -18 -2 -12 4 6 6 40 3 92 -8 l82 -16 194 193 c127
126 198 190 206 185 7 -5 10 -4 6 2 -6 10 537 558 931 939 l152 148 0 3533 0
3533 -37 0 c-21 0 -114 -7 -208 -15 -93 -8 -318 -26 -500 -40 -181 -14 -361
-30 -400 -35 -38 -5 -126 -14 -195 -20 -120 -10 -131 -9 -285 20 -88 17 -281
53 -430 80 -148 27 -378 70 -510 94 -132 25 -314 59 -405 76 -91 17 -212 40
-270 51 -202 40 -364 67 -376 62 -7 -2 -16 -19 -20 -36 -4 -18 -3 -701 1
-1518 l7 -1486 -23 -6 c-13 -4 -44 -7 -69 -8 l-45 -2 50 -7 c28 -4 61 -11 75
-14 14 -4 34 -9 45 -11 11 -3 31 -7 45 -11 64 -15 278 -54 300 -55 23 0 23 -1
5 -8 -11 -5 -29 -5 -40 -1 -11 3 -35 5 -52 3 -18 -1 -33 1 -33 6 0 5 -13 11
-29 13 -21 3 -28 1 -24 -9 3 -7 0 -13 -6 -13 -6 0 -11 6 -11 13 0 8 -3 8 -8 1
-11 -17 -279 -19 -299 -2 -14 11 -16 11 -10 -4 4 -12 2 -15 -8 -11 -8 3 -12 9
-9 14 3 5 1 9 -4 9 -6 0 -13 -7 -16 -16 -5 -12 -9 -14 -20 -5 -18 15 -29 1
-54 -69 -65 -180 -82 -299 -77 -550 4 -252 37 -410 110 -535 38 -65 65 -84
141 -98 l69 -13 8 -1885 c8 -1663 11 -1886 24 -1901 19 -21 89 -44 313 -104
310 -82 812 -219 1210 -331 69 -19 167 -47 219 -61 52 -14 89 -28 83 -30 -7
-2 -8 -11 -2 -28 6 -15 6 -24 0 -24 -6 0 -5 -9 2 -20 11 -17 10 -22 -1 -29
-15 -10 -25 -81 -11 -81 5 0 5 -13 0 -29 -4 -16 -6 -32 -2 -35 3 -3 1 -6 -4
-6 -5 0 -9 -42 -8 -93 0 -50 -3 -100 -8 -109 -5 -10 -4 -19 2 -23 6 -4 7 -12
3 -18 -4 -7 -6 -24 -4 -39 1 -17 -4 -30 -15 -36 -13 -7 -15 -14 -8 -24 12 -14
11 -74 -1 -127 -5 -23 -4 -31 3 -27 7 4 10 -1 7 -12 -4 -22 -13 -107 -20 -189
-3 -34 -9 -73 -14 -85 -9 -26 -4 -51 10 -42 5 3 9 1 9 -4 0 -5 -10 -12 -22
-16 -16 -4 -19 -9 -11 -14 8 -5 12 -52 14 -145 1 -76 6 -140 11 -143 4 -3 1
-12 -7 -21 -9 -9 -14 -22 -11 -29 3 -8 1 -14 -4 -14 -6 0 -10 5 -10 11 0 6 -7
8 -16 5 -8 -3 -61 6 -116 20 -72 18 -103 22 -108 14 -4 -6 -18 -13 -31 -14
-69 -9 -99 -19 -99 -34 0 -13 -3 -12 -20 3 -18 17 -20 17 -14 2 6 -17 0 -20
-38 -20 -10 0 -18 -4 -18 -9 0 -5 -4 -7 -9 -3 -6 3 -14 -3 -20 -12 -5 -10 -13
-15 -17 -11 -10 11 -46 -40 -38 -54 17 -27 38 -47 46 -42 4 3 8 -2 8 -12 0
-14 2 -14 16 -3 13 11 15 10 12 -5 -2 -14 10 -22 62 -38 36 -10 72 -22 80 -25
8 -3 24 -7 35 -9 11 -2 34 -6 50 -9 17 -3 41 -7 55 -9 14 -1 32 -6 40 -9 59
-24 698 -42 885 -25 44 4 113 11 153 14 43 4 79 12 88 21 11 12 18 12 29 3 8
-6 20 -8 27 -4 7 5 22 9 33 11 41 7 51 9 63 17 6 4 16 4 22 1 5 -3 20 1 33 10
13 8 32 13 41 9 9 -3 16 -1 16 5 0 6 9 11 21 11 13 0 23 8 26 21 4 12 11 18
20 15 16 -7 52 30 53 53 0 23 -40 60 -58 54 -9 -4 -13 -2 -9 4 9 15 -19 37
-38 30 -8 -4 -22 1 -31 10 -13 14 -17 14 -25 2 -7 -11 -9 -10 -9 6 0 16 -7 20
-41 22 -23 0 -44 5 -48 10 -3 4 -15 9 -26 9 -47 4 -122 16 -150 24 -16 5 -54
8 -83 6 l-53 -2 38 23 c21 13 41 23 45 23 4 0 58 24 120 54 168 80 328 155
488 229 67 31 416 194 610 284 41 20 102 48 135 63 1075 500 1616 765 1761
861 241 162 383 394 443 727 47 258 48 435 6 887 -3 28 -9 106 -15 175 -12
148 -15 184 -35 400 -9 91 -31 338 -50 550 -19 212 -37 399 -40 415 -3 17 -18
165 -35 330 -16 165 -32 318 -35 340 -3 22 -25 216 -50 430 -24 215 -51 440
-60 500 -9 61 -31 227 -50 370 -137 1043 -332 2093 -587 3165 -79 335 -168
684 -176 691 -4 3 -86 -4 -182 -16z m-4094 -3677 c-31 -62 -66 -183 -66 -229
0 -17 -3 -20 -9 -11 -5 8 -6 -8 -3 -37 2 -28 0 -51 -5 -51 -5 0 -9 -114 -9
-280 1 -178 -3 -282 -9 -284 -5 -3 -3 -5 6 -5 12 -1 18 -16 23 -65 3 -35 15
-97 27 -137 11 -41 21 -82 22 -91 1 -9 4 -15 7 -13 3 2 13 -10 22 -26 17 -29
17 -29 -3 -19 -23 13 -75 82 -85 114 -4 11 -11 24 -16 27 -6 4 -11 18 -11 32
-1 14 -5 23 -9 20 -5 -2 -8 3 -8 12 0 10 5 13 12 9 7 -4 8 -3 4 5 -4 6 -11 9
-16 6 -8 -5 -34 88 -52 191 -15 89 -21 342 -9 399 43 208 56 253 92 324 21 42
57 98 80 124 24 26 43 47 44 47 2 0 -12 -28 -29 -62z"/>
</g>
</svg>
