<?xml version="1.0" encoding="utf-8"?>
<!-- Generator: Adobe Illustrator 24.0.1, SVG Export Plug-In . SVG Version: 6.00 Build 0)  -->
<svg version="1.1" id="Layer_1" xmlns="http://www.w3.org/2000/svg" xmlns:xlink="http://www.w3.org/1999/xlink" x="0px" y="0px"
	 viewBox="0 0 288 560" style="enable-background:new 0 0 288 560;" xml:space="preserve">
<style type="text/css">
	.st0{fill:#FEE6BA;}
	.st1{fill:#FEE6BA;enable-background:new    ;}
</style>
<title>WebsiteLogo</title>
<path class="st0" d="M134.2,201.2c0.1,0.1,0.2,0,0.3,0.1c1.3,0,2.5,0.2,3.8,0.4c2.2,0.4,4.2,1.5,5.7,3.1c0.8,0.8,1.4,1.8,1.7,2.8
	c0.4,1.3,0.3,2.6-0.1,3.9c-0.4,1.3-1,2.5-1.7,3.7c-0.8,1.5-1.3,3.1-1.3,4.8c0.1,0.8,0.2,1.7,0.4,2.5c0,0.3,0.1,0.7,0.3,1
	c0.1-0.2,0.2-0.4,0.2-0.6c0.3-1.7,0.6-3.4,1-5c0.2-0.9,0.5-1.7,1-2.5c0.3-0.6,1-0.8,1.6-0.4c0,0,0,0,0,0c0.4,0.2,0.9,0.3,1.4,0.5
	c1,0.4,1.7,1.2,1.9,2.2c0.1,0.3,0.1,0.6,0.2,0.9l0.1-0.2c0.6-1.4,0.4-3.1-0.5-4.4c-0.7-1-1.4-1.8-2.3-2.6c-0.2-0.1-0.3-0.3-0.3-0.5
	c-0.1-0.6-0.1-1.2-0.1-1.8c0.1-1,0.9-1.7,1.9-1.6c0.1,0,0.2,0,0.2,0c1.1,0.3,2.2,0.8,3.2,1.4c2.8,1.8,5.3,4,7.5,6.5
	c1.1,1.2,1.9,2.5,2.5,4c0.3,0.7,0.6,1.4,0.9,2.2c0.8,2.2,1.9,4.3,3.4,6.1c1.4,1.8,3.9,2.5,6.1,1.7c0.3-0.1,0.6-0.1,0.9-0.2
	c0.1,0,0.2,0,0.2,0.1s-0.1,0.2-0.2,0.2c-0.1,0.1-0.2,0.1-0.3,0.1c-1.3,0.7-2.8,1.1-4.2,1.4c-0.6,0.2-1.2,0.1-1.7-0.1
	c-0.9-0.4-1.7-0.9-2.4-1.6c-1.3-1.3-2.4-2.8-3.4-4.3c-0.8-1.3-1.7-2.5-2.6-3.6c-0.6-0.7-1.2-1.3-2-1.8v0.2c0.3,1.5,0.6,2.9,0.7,4.4
	c0.2,2.1,0.2,4.1,0.2,6.2c-0.1,2.6-0.1,5.2,0.1,7.8c0.2,2,0.8,4,1.8,5.8c1.2,2.1,2.8,4,4.7,5.6c0.5,0.4,0.9,0.8,1.5,1.2
	c-0.5-0.1-0.9-0.2-1.4-0.3c-0.4-0.1-0.9-0.1-1.3,0l0.7,0.7c1.7,1.7,3.4,3.2,5,5c2.3,2.3,4.2,4.9,5.7,7.8c1.9,3.5,2.5,7.7,1.5,11.6
	c-0.2,0.7-0.4,1.4-0.7,2c0-0.2,0-0.4,0-0.6c0-1.5-0.1-3.1-0.5-4.6c-0.4-1.4-1.1-2.7-2.1-3.8c-0.3,1.4-0.3,2.8-0.5,4.2l-0.1-0.8
	c-0.1,0.5-0.1,1-0.1,1.4c-0.1,2.4-0.4,4.8-0.9,7.2c-1,4.9-4.2,9.1-8.7,11.4c-0.4,0.2-0.8,0.4-1.3,0.6c0.3-0.8,0.5-1.6,0.7-2.4
	c0.4-2.4,0.6-4.8,0.7-7.2c0.1-1.2,0-2.4-0.1-3.6c0-0.1,0-0.4-0.2-0.4s-0.2,0.2-0.3,0.3c-0.3,0.7-0.5,1.4-0.7,2.1
	c-0.1,0.4-0.2,0.7-0.4,1c-1.6,2.3-3.2,4.6-4.8,6.9c-5.8,8.3-11.4,16.8-16.7,25.5c-2.9,4.7-5.5,9.6-7.8,14.6c-1.9,4-3.2,8.2-3.8,12.6
	c-0.2,1.9-0.1,3.8,0.3,5.6c0.7,2.7,2.1,5.2,4,7.3c2.2,2.5,4.7,4.6,7.1,6.9c2.8,2.6,5.4,5.3,7.8,8.3c4.2,5.4,7.6,11.4,9.9,17.9
	c1.7,4.6,3,9.3,3.9,14.1c0.2,1.1,0.4,2.3,0.6,3.5c-0.2-0.3-0.3-0.6-0.4-0.9c-1.3-2.9-2.8-5.6-4.5-8.3c-1.1-1.8-2.4-3.6-3.8-5.2
	c-0.2-0.2-0.4-0.4-0.7-0.6c-0.3-0.2-0.5-0.1-0.5,0.3c0,0.3,0,0.6,0.1,0.9c0.4,1.5,0.9,2.9,1.5,4.4c2.1,6.1,3.3,12.5,3.6,19
	c0.1,1.9,0.1,3.8,0,5.8s-0.2,3.8-0.4,5.7c-0.2,2.1-0.4,4.2-0.7,6.4l-0.3,2c-0.1-0.5-0.1-1.1-0.1-1.6c-0.2-3.2-0.5-6.4-1.1-9.6
	c-0.9-5.2-2.3-10.3-4.2-15.1c-1-2.7-2.3-5.2-3.9-7.6c-3.5-5-7.2-9.8-10.8-14.7c-2.6-3.5-5-7.1-7.2-10.8c-1-1.6-1.8-3.4-2.3-5.3
	c0-0.3-0.1-0.6-0.2-0.8c-0.4-0.7-0.6-1.5-0.8-2.3c-0.4-2.6-0.6-5.1-0.7-7.7c-0.1-1.7-0.2-3.4-0.4-5.1c0-0.3-0.1-0.5-0.3-0.8
	c-0.2,0.7-0.1,1.5-0.2,2.1c-0.1-0.1-0.1-0.2-0.1-0.3c-0.1-0.7-0.2-1.5-0.3-2.2c-0.3-3.1-0.2-6.2,0.2-9.3c0.5-3.5,1.3-6.9,2.5-10.2
	c2-5.4,4.4-10.5,7.3-15.5c3-5.3,6.2-10.4,9.3-15.6c2.8-4.6,5.2-9.4,7.3-14.4c2.4-5.6,3.6-11.7,3.5-17.9c-0.1-1.9-0.3-3.8-0.7-5.7
	c-0.9-4.2-2.4-8.3-4.6-12c-0.1-0.1-0.1-0.2-0.2-0.3c0,1.9,0.1,3.8,0.4,5.7c0.4,2.8,1.1,5.5,1.7,8.2c0.8,3.1,1.2,6.4,1.2,9.6
	c0,2.5-0.6,4.9-1.6,7.1c-0.2,0.5-0.5,1-0.8,1.4c0.4-1.9,0.7-3.8,0.8-5.7c0.2-2.6,0.1-5.2-0.2-7.8c-0.4-2.7-1.2-5.3-2.4-7.8
	c-0.3-0.7-0.7-1.4-1.2-2c0,0.2,0,0.3,0,0.4c0.2,0.9,0.3,1.8,0.3,2.8c0,2.5-0.4,4.9-1.1,7.3c-1.1,3.4-2.4,6.8-4,10c0,0,0,0.1-0.1,0.1
	c0.1-0.8,0.1-1.7-0.2-2.5c-0.5-1.3-1.1-2.5-1.8-3.6c-0.9-1.6-1.4-3.3-1.5-5.2c0-0.7-0.1-1.4-0.3-2.1c0-0.1-0.1-0.3-0.2-0.3
	s-0.3,0.1-0.3,0.2c-0.1,0.1-0.2,0.3-0.3,0.4c-1.4,3.1-2.2,6.3-2.5,9.7c-0.2,2.6-0.1,5.2,0.1,7.8c0.1,0.8,0.2,1.6,0.2,2.4
	c0,0.2,0,0.4-0.2,0.5s-0.4-0.1-0.5-0.2c-0.4-0.4-0.8-0.8-1.1-1.3c-2.3-3.5-4.1-7.3-5.4-11.3c-0.5-1.3-0.8-2.7-1-4.1
	c-0.1-1.3,0.1-2.5,0.4-3.7c0.4-1.5,0.8-3.1,1.4-4.5c0.2-0.4,0.3-0.8,0.3-1.2c0-0.3-0.2-0.4-0.4-0.3c-0.2,0.1-0.5,0.2-0.7,0.3
	c-1.1,0.7-2.2,1.5-3.2,2.3l-0.4,0.3c0-0.1,0-0.2,0.1-0.2c0.7-2.2,1.5-4.4,2.5-6.5c1.6-3.6,3.5-7,5.2-10.5c1.6-3.1,2.8-6.4,3.5-9.7
	c0.5-2.7,0.4-5.5-0.4-8.2c-1-2.9-2.7-5.6-4.9-7.8c-0.2-0.2-0.4-0.4-0.5-0.6c-0.7-1.9-0.5-4.1,0.6-5.9c0.2-0.6,0.9-0.9,1.5-0.6
	c0.2,0.1,0.3,0.2,0.5,0.3c0.6,0.5,1.1,1.1,1.5,1.8c0.9,1.3,1.7,2.8,2.7,4.1c0.5,0.7,1.1,1.3,1.7,1.8c0.2,0.1,0.3,0.2,0.4-0.1
	c0.4-0.9,0.6-1.8,0.7-2.7c0.2-1.7,0.1-3.5-0.2-5.2c-0.5-3.2-1.7-6.2-3.6-8.8c-1.4-2.3-3.7-4-6.2-4.8c0,0,0,0,0-0.1
	c0.4,0,0.9,0,1.3-0.1L134.2,201.2z M155,252.9c0.6,0.5,1.2,1,1.8,1.6c0.4,0.4,0.9,0.7,1.4,1.1c0.1,0.1,0.3,0.2,0.4,0.1s0-0.2,0-0.4
	c-0.3-0.8-0.7-1.6-1.1-2.4c-1.5-2.6-2.8-5.3-4-8c-0.7-1.6-1.2-3.4-1.5-5.1c-0.1-0.9,0-1.8,0.2-2.6c-0.7,0.9-1.3,1.9-1.8,2.9
	c-1.2,2.8-1.3,6-0.1,8.8c0.9,2.1,1.9,4.1,3.1,6c1.5,2.5,3.1,5,4.4,7.7l0.1,0.2C157.6,259.2,156.6,255.9,155,252.9z M149.9,229.2
	c-0.4,1.5-0.8,2.9-1,4.4c0,0.3,0,0.5,0,0.8c0,0.1-0.1,0.3,0.1,0.3s0.2-0.1,0.3-0.2c0.7-0.9,1.2-1.9,1.6-3.1c0.4-1.7,0.5-3.5,0.2-5.2
	c0-0.1,0-0.1-0.1-0.2C150.6,227.1,150.2,228.1,149.9,229.2L149.9,229.2z"/>
<path class="st0" d="M255.6,241.7c24.1-30.7-5.9-58.3,22.2-90.8c-19.9,13.1-31.8,37.5-27,61.3c3.5,15.1,2.4,13.1,2.8,0.7
	c-0.1-6.6,2.2-12.8,4.2-18.9c12.9,36-20.2,65.9-1.1,45.9C256.5,240.4,255.5,241,255.6,241.7z"/>
<path class="st0" d="M15.4,148.7c36.3,38.3-5.9,71,32.8,100.8c-22.3-17.7-8.7-89.4-5.2-24.9C51,191.6,43,168.9,15.4,148.7z"/>
<path class="st0" d="M211.3,225.4c-14.7,1.6-35.2,4.9-40.7,20.7C187,231.7,186.9,251,211.3,225.4z"/>
<path class="st0" d="M84.9,226.1c21.7,23.7,24.3,7,40.6,20.5C119.8,231.1,99.7,227.3,84.9,226.1z"/>
<path class="st0" d="M58,199.8c6.7,4.6,10.2,6.9,11.6,15.4c2.2-8.9-1.1-6.7,4-4c0-5.3-24.3-21.8-27.9-30.6c1.4,9.1,7.2,15.7,11,23.6
	c0.8,1.2,0.6,5.7,1,2.4C58.1,204.4,58.3,202,58,199.8z"/>
<path class="st0" d="M229.6,201.9c0,1.2-4.8,3.9-6,5.9c-0.5,0.7-3,4.1-1.5,3.2c5.5-4.4,2.7-0.8,4.4,4c0.7-7.7,5.4-11.9,11.6-15.6
	c-0.5,2,0.4,10.9,0.9,6.1C255.2,173.6,252.2,181,229.6,201.9z"/>
<path class="st0" d="M226.5,281.2c-16.6-3.3,1.4-1.2,7.7-8.8c-7.6,3.2-15.9,2.9-24,4C191.1,284.3,221.2,284,226.5,281.2z"/>
<path class="st0" d="M93.2,282.1c-7.3-9.1-22.4-4.9-31-8.8c4,3.3,8.8,5.4,14,6c0.8-0.1,0.3,0.5-0.2,0.6
	C59.7,284.4,87.8,283.4,93.2,282.1z"/>
<path class="st0" d="M57.3,255.8c-0.6,3.5,0.6,7.1,3.1,9.6c-7.4-4.2,4.3,7.4,11.7,5.3C66.1,266.7,62,261.2,57.3,255.8z"/>
<path class="st0" d="M238.9,263c-7.3,5.1,1.7-1.5-0.2-7.5c-4.4,4.7-8.2,10.4-13.8,14C221,271.9,235.6,269.9,238.9,263z"/>
<path class="st0" d="M121.1,280c-5.3-7.6-2.7-2.1-0.5,2.4c1.8,3.8,6.9,8.7,10.9,9.1c-4.2-4.1-7.2-9.3-8.7-15
	C123,267.1,120.2,275.3,121.1,280z"/>
<path class="st0" d="M148.3,215.3c0-0.2-0.2-0.3-0.4-0.3C147.9,215.2,148.2,215.2,148.3,215.3z"/>
<path class="st0" d="M179.8,298c-2.6-0.1-3.8,4.6-4.7,6.6c7.9-9.4,15.4-3.1,8.3-0.1C189.5,310.9,194.5,292.7,179.8,298z"/>
<path class="st0" d="M117.9,298.6c-17-5.5-11.4,12.5-5.1,6.4c-5.9-2.1-1.5-6.8,3-4.1C123.3,306.3,121.5,306.6,117.9,298.6z"/>
<path class="st1" d="M249,222c0.4-3.5-2.4-17.5-1.9-23.6c-5.1,4.6-7.6,17.5-7.3,26.2c-3.3-6.4-3.3-13.3-3.3-20.3
	c-7.2,7.1-10.4,18.7-7.1,28.3c-7.1-4.4-2.7-24.1-5.9-18.9c-8.1,6.8-5.2,17.6-5.4,27c-4.6-3-0.5-18.3-4.9-10.6
	c-0.9,0.7-5.9,9.9-4.7,5.9c-0.9,15.1-47.1,8.7-33.6,16c21.2,20.7-4.6,26.6,32.1-1.2c4.9-7.3,2.4,1.3,1.4,4.7
	c-17.5,18-23,16.6-30.2,42.5c12.9-17.3,27.8,3.3,41.6-10.6c-10.4,2.3-20.5-1.4-30.9,0c4.8-0.9,6.9-5.6,10.1-8.8c3-2.4-4.2,0-6-0.4
	c10-9.1,30.4-2.6,34.8-19.2c0.5-1.4-0.7-7.3,1.1-2.5c0.5,8.8,5.4,0.1,8.2-3.4c1-1,1-6.3,2.1-3c0.3,1,0.2,5.2,1.5,3.2
	c2.9-3.8,6.4-7.6,7.4-12.3C249.8,234.1,248.7,228.8,249,222z"/>
<path class="st1" d="M117.9,298.6c-7.6-27.1-13.2-24.2-30.4-42.9c-3.3-13.2,0-4.7,6-0.7c6.9,4.4,12.3,10.8,18.2,16.4
	c-1.3-20.5,28.4-21.9-1.6-23.5c-21.3-3.9-16.4-1.9-29.2-19.7c-1,3.7,0.3,9.1-2.2,12c-1.2,1.8-0.9,0.7-0.9-0.7
	c0.7-9.3,1.8-18.9-5.6-25.7c-2.1-4.2,0.9,16.4-5.5,19.4c3-10,0.3-20.8-7-28.2c0.9,2.2-3,27.2-3.7,17.6c1.2-9.2-2.6-17.9-6.9-23.7
	c0.6,19.4-9.4,37.3,7,55.8c0.9-1.8,0.2-3.8,1.5-5.4c1.7,6.1,9,17.8,10.2,6.3c0.2,14.5,17.1,17.9,29.4,18.9
	c16.8,11.7-13.3-5.8,7.2,12.5c6.4,2-1.9,1.1-4.4,0.7c-4.9-0.6-9.6,0.9-14.5,1.3c-3.4,1.2-14.1-3.2-5.4,1.8
	C93.1,298.8,107.8,283.1,117.9,298.6z"/>
<path class="st0" d="M120.8,329.4c-13.1,22.3-13.9,55,9,71.2c-9.1-26.4-16.7-63.9,5.4-92.6c-2.8,4-6.4,7.5-9,11.8
	c-0.1-0.6,1.3-1.7,0.7-1.8C124.8,320.8,123.4,327.3,120.8,329.4z"/>
<path class="st0" d="M131.6,343c14.6,33.7,32.9,23.3,33.8,74.1c6.9-15.9,6.2-44.2-5.5-54.9c1,5.1,5,12.2,4.2,17.1
	C156.7,364.6,139.8,357.7,131.6,343z"/>
<path class="st0" d="M210.3,295.4c-7.3,1.6-13.3-1.7-20.3-1.6C195,303.5,202.8,299.1,210.3,295.4z"/>
<path class="st0" d="M85.7,295.8c6.4,3,13.2,7.5,18.9,0.9c0.4-1.4,2.6-2.9,0-2.7C98.1,295.2,92.5,297.1,85.7,295.8z"/>
<path class="st0" d="M120.8,329.4c0.2-0.1,0.1-0.4,0.4-0.6C120.9,328.9,120.8,329.1,120.8,329.4z"/>
<path class="st0" d="M49.7,200c0,0.1,0.2,0.2,0.1,0S49.8,199.8,49.7,200z"/>
<path class="st0" d="M151.6,403.9c-1.1-15.5-15.6-29.6-2.7-20.8c4.9,4.1,4.9,4.3,1.4-1.1c-4.7-8-15.6-13.9-18.1-21.5
	c-1-0.6-2.9-5.9-3.2-4.6C125,373,146.7,388.1,151.6,403.9z"/>
<path class="st0" d="M154.6,286.1c-2.3,10.7,7.5-10.1,6.5-14.9c6.6,3.7,4.8,20.7,7.8,6.7c2.3-7.2-7.1-32-3.1-11
	c-0.7,1.5-7.8-12.5-6.5-5.1c-0.9-1.2-0.1,2-0.1,2.7c0.9,5.8-4.8-6.7-5.1-4.3C156.6,269.8,157.4,276.5,154.6,286.1z"/>
<path class="st0" d="M141.1,241.4c0.1-1.1-0.7-5.6-0.8-2.5c-2.6,10.8-9.5,15-7.1,27.9c0.1,1.9,0.9-2.4,1.2-3.1
	c4.4-8.2,3.6-10.6,5.4,0.2C142.9,255.7,141.4,249.9,141.1,241.4z"/>
</svg>
