<svg id="Layer_1" data-name="Layer 1" xmlns="http://www.w3.org/2000/svg" viewBox="0 0 288 560"><defs><style>.cls-1,.cls-2{fill:#2b010f;}.cls-2{opacity:0.4;}</style></defs><title>WebsiteLogo</title><path class="cls-1" d="M134.17,201.18c.09.09.2,0,.29.06a22.65,22.65,0,0,1,3.77.41,9.94,9.94,0,0,1,5.68,3.09,7.68,7.68,0,0,1,1.72,2.83,6.77,6.77,0,0,1-.07,3.86,20.42,20.42,0,0,1-1.71,3.71,9.71,9.71,0,0,0-1.31,4.82,20.9,20.9,0,0,0,.36,2.5,2.09,2.09,0,0,0,.26,1,1,1,0,0,0,.23-.58c.34-1.66.55-3.35,1-5a7.4,7.4,0,0,1,1-2.46A1.15,1.15,0,0,1,147,215c.45.17.91.34,1.35.54a3.23,3.23,0,0,1,1.94,2.18c.08.28.15.56.24.88l.12-.24a4.4,4.4,0,0,0-.48-4.37,12.72,12.72,0,0,0-2.34-2.57.76.76,0,0,1-.31-.47,8,8,0,0,1-.08-1.76,1.75,1.75,0,0,1,2.1-1.61,9.19,9.19,0,0,1,3.17,1.43,38.58,38.58,0,0,1,7.49,6.54,12.31,12.31,0,0,1,2.52,4c.28.72.56,1.45.86,2.17a21.59,21.59,0,0,0,3.38,6.13,5.35,5.35,0,0,0,6.05,1.72,6.71,6.71,0,0,1,.89-.19c.08,0,.2,0,.24.05s-.08.17-.16.23a1.35,1.35,0,0,1-.26.15,14.84,14.84,0,0,1-4.24,1.38,2.82,2.82,0,0,1-1.7-.07,9.06,9.06,0,0,1-2.37-1.55,24.09,24.09,0,0,1-3.38-4.34,34.94,34.94,0,0,0-2.63-3.63,9.08,9.08,0,0,0-2-1.79l0,.24a34.79,34.79,0,0,1,.72,4.42,55.21,55.21,0,0,1,.16,6.17,59.44,59.44,0,0,0,.15,7.78,15.84,15.84,0,0,0,1.79,5.77,19.35,19.35,0,0,0,4.71,5.56c.46.39.94.76,1.47,1.2-.51-.12-.92-.24-1.35-.32a3.89,3.89,0,0,0-1.33,0l.66.72c1.66,1.67,3.41,3.24,5,5a33.45,33.45,0,0,1,5.71,7.8,16.12,16.12,0,0,1,1.52,11.61,9.53,9.53,0,0,1-.71,2,3.52,3.52,0,0,1,0-.64,19.21,19.21,0,0,0-.46-4.6,10,10,0,0,0-2.05-3.77c-.27,1.44-.26,2.84-.53,4.22l-.06-.82c-.06.48-.1.95-.13,1.42a42.86,42.86,0,0,1-.93,7.21A16.37,16.37,0,0,1,163,292.17a8.6,8.6,0,0,1-1.26.58,9.52,9.52,0,0,0,.66-2.44,54.3,54.3,0,0,0,.68-7.2,16.07,16.07,0,0,0-.15-3.6c0-.15,0-.38-.24-.39s-.23.18-.29.32a11.4,11.4,0,0,0-.7,2.14,2.73,2.73,0,0,1-.43,1c-1.61,2.28-3.23,4.57-4.82,6.87-5.78,8.34-11.45,16.76-16.66,25.47A139.61,139.61,0,0,0,132,329.52a42.12,42.12,0,0,0-3.82,12.58,16.24,16.24,0,0,0,.31,5.6,16.77,16.77,0,0,0,4,7.27c2.18,2.48,4.68,4.64,7.09,6.9a80.33,80.33,0,0,1,7.81,8.27A63.08,63.08,0,0,1,157.28,388a94,94,0,0,1,3.9,14.07c.23,1.15.43,2.31.64,3.46a7.07,7.07,0,0,1-.43-.93,60.74,60.74,0,0,0-4.49-8.28,37.77,37.77,0,0,0-3.75-5.23,3.25,3.25,0,0,0-.68-.6c-.32-.2-.47-.11-.49.26a2.72,2.72,0,0,0,.12.9,41.81,41.81,0,0,0,1.49,4.38,64.87,64.87,0,0,1,3.59,19c.08,1.92.08,3.83,0,5.75s-.18,3.81-.35,5.7c-.18,2.13-.44,4.24-.74,6.36l-.3,2a14,14,0,0,1-.13-1.58,77.79,77.79,0,0,0-1.08-9.62,73.64,73.64,0,0,0-4.24-15.15,36.78,36.78,0,0,0-3.88-7.63c-3.5-5-7.24-9.78-10.81-14.71a114,114,0,0,1-7.16-10.79,20.7,20.7,0,0,1-2.28-5.29,2.83,2.83,0,0,0-.2-.81,6.74,6.74,0,0,1-.76-2.28,60.65,60.65,0,0,1-.7-7.74c-.09-1.71-.16-3.42-.4-5.12a1,1,0,0,0-.25-.75c-.2.72-.06,1.45-.22,2.15a.34.34,0,0,1-.12-.29c-.09-.73-.18-1.45-.25-2.17a40.39,40.39,0,0,1,.19-9.26A51.32,51.32,0,0,1,126,333.64a96,96,0,0,1,7.28-15.46c3-5.27,6.21-10.4,9.25-15.63a110,110,0,0,0,7.26-14.38,43.79,43.79,0,0,0,3.51-17.86,33.42,33.42,0,0,0-.66-5.74,39.88,39.88,0,0,0-4.58-12c-.06-.1-.08-.23-.24-.28a29.29,29.29,0,0,0,.43,5.7c.44,2.75,1.11,5.45,1.69,8.17a40.75,40.75,0,0,1,1.19,9.59,18,18,0,0,1-1.56,7.13,7.42,7.42,0,0,1-.75,1.4,41.29,41.29,0,0,0,.84-5.7,35.34,35.34,0,0,0-.21-7.76,24.23,24.23,0,0,0-2.43-7.78,14.88,14.88,0,0,0-1.19-2c0,.18,0,.27,0,.36a15.3,15.3,0,0,1,.26,2.78,25.31,25.31,0,0,1-1.1,7.32,73.81,73.81,0,0,1-4,10c0,.05,0,.11-.13.11a4.9,4.9,0,0,0-.22-2.46,17.7,17.7,0,0,0-1.81-3.58,11.31,11.31,0,0,1-1.51-5.16,10.16,10.16,0,0,0-.32-2.12c0-.12-.08-.26-.22-.29s-.25.11-.34.23a2.26,2.26,0,0,0-.26.42,29.61,29.61,0,0,0-2.49,9.69,41.5,41.5,0,0,0,.15,7.8,22.15,22.15,0,0,1,.24,2.44c0,.21,0,.43-.23.52s-.36-.07-.51-.19a6.33,6.33,0,0,1-1.1-1.32,49,49,0,0,1-5.44-11.32,21.61,21.61,0,0,1-1-4.13,12.09,12.09,0,0,1,.43-3.74,34.37,34.37,0,0,1,1.37-4.54,4,4,0,0,0,.28-1.22c0-.3-.15-.41-.42-.32a4.28,4.28,0,0,0-.69.31,33,33,0,0,0-3.23,2.28l-.37.26c0-.14,0-.18.06-.23a48.68,48.68,0,0,1,2.47-6.47c1.61-3.57,3.51-7,5.2-10.54a37.83,37.83,0,0,0,3.46-9.74A17,17,0,0,0,134,230a21,21,0,0,0-4.86-7.8c-.19-.21-.45-.37-.54-.65a6.71,6.71,0,0,1,.57-5.85,1.12,1.12,0,0,1,1.92-.29,8.24,8.24,0,0,1,1.47,1.76c.91,1.34,1.71,2.76,2.69,4.06A7.71,7.71,0,0,0,137,223c.19.13.3.16.42-.11a9.74,9.74,0,0,0,.68-2.7,18,18,0,0,0-.22-5.23,22.15,22.15,0,0,0-3.55-8.84,11.57,11.57,0,0,0-6.22-4.8s0,0,0-.06a9.65,9.65,0,0,0,1.32-.08ZM155,252.86c.59.52,1.16,1,1.75,1.56a8.73,8.73,0,0,0,1.37,1.05c.11.06.25.18.38.06s0-.24,0-.37a14.71,14.71,0,0,0-1.13-2.37,85.87,85.87,0,0,1-4-8,19.13,19.13,0,0,1-1.46-5.14,6.61,6.61,0,0,1,.22-2.65,13.21,13.21,0,0,0-1.8,2.91,11,11,0,0,0-.05,8.82,37.12,37.12,0,0,0,3.14,6c1.54,2.53,3.14,5,4.44,7.69l.15.19A29.26,29.26,0,0,0,155,252.86Zm-5.05-23.64a33.42,33.42,0,0,0-1,4.44,6.45,6.45,0,0,0,0,.76c0,.12-.06.29.09.34s.21-.11.29-.2a9,9,0,0,0,1.55-3.05,12.31,12.31,0,0,0,.2-5.23c0-.06,0-.11-.09-.22A26.49,26.49,0,0,0,149.91,229.22Z"/><path class="cls-1" d="M255.61,241.69c24.05-30.67-5.86-58.26,22.23-90.77-19.94,13.12-31.77,37.47-27,61.3,3.47,15.1,2.37,13.14,2.82.66-.06-6.6,2.16-12.78,4.16-18.91,12.85,36-20.21,65.92-1.07,45.94C256.53,240.43,255.5,241,255.61,241.69Z"/><path class="cls-1" d="M15.39,148.73c36.28,38.25-5.88,71,32.81,100.84C25.94,231.9,39.51,160.19,43,224.71,51.05,191.61,43,168.94,15.39,148.73Z"/><path class="cls-1" d="M211.33,225.44c-14.73,1.63-35.16,4.86-40.67,20.69C187,231.73,186.88,251,211.33,225.44Z"/><path class="cls-1" d="M84.88,226.07c21.7,23.73,24.31,7,40.56,20.5C119.78,231.06,99.66,227.29,84.88,226.07Z"/><path class="cls-1" d="M58,199.75c6.65,4.6,10.22,6.87,11.55,15.4,2.19-8.93-1.09-6.67,4-4,0-5.26-24.25-21.79-27.9-30.57,1.37,9.15,7.23,15.7,11,23.65.75,1.16.6,5.68,1,2.37A21.06,21.06,0,0,0,58,199.75Z"/><path class="cls-1" d="M229.63,201.9c0,1.21-4.77,3.89-6,5.88-.51.72-3,4.13-1.52,3.18,5.47-4.4,2.72-.84,4.4,4,.69-7.69,5.39-11.85,11.59-15.63-.48,2,.37,10.85.9,6.06C255.18,173.55,252.22,181,229.63,201.9Z"/><path class="cls-1" d="M226.47,281.22c-16.59-3.26,1.45-1.22,7.69-8.81-7.61,3.24-15.94,2.92-24,3.95C191.11,284.27,221.24,284,226.47,281.22Z"/><path class="cls-1" d="M93.24,282.15c-7.27-9.09-22.43-4.87-31-8.81a26.6,26.6,0,0,0,14,6c.83-.08.31.47-.15.62C59.66,284.39,87.83,283.41,93.24,282.15Z"/><path class="cls-1" d="M57.31,255.75a11.17,11.17,0,0,0,3.08,9.63c-7.39-4.24,4.25,7.36,11.66,5.27C66.07,266.69,62,261.17,57.31,255.75Z"/><path class="cls-1" d="M238.89,263c-7.29,5.14,1.71-1.48-.17-7.51-4.41,4.69-8.17,10.36-13.76,14C221,271.92,235.6,269.92,238.89,263Z"/><path class="cls-1" d="M121.12,280c-5.29-7.64-2.68-2.13-.46,2.35,1.75,3.81,6.87,8.67,10.9,9.09a32,32,0,0,1-8.66-15C123,267.06,120.18,275.32,121.12,280Z"/><path class="cls-1" d="M148.29,215.27c0-.2-.19-.25-.37-.29C147.94,215.23,148.19,215.23,148.29,215.27Z"/><path class="cls-1" d="M179.76,298c-2.59-.07-3.77,4.57-4.74,6.63,7.87-9.37,15.37-3.09,8.33-.1C189.52,310.86,194.51,292.73,179.76,298Z"/><path class="cls-1" d="M117.87,298.63c-17-5.46-11.4,12.47-5.09,6.43-5.92-2.08-1.48-6.84,3-4.14C123.25,306.3,121.54,306.6,117.87,298.63Z"/><path class="cls-2" d="M249,222c.38-3.53-2.39-17.52-1.87-23.55-5.06,4.62-7.55,17.53-7.34,26.24-3.26-6.38-3.25-13.26-3.27-20.26-7.18,7.12-10.35,18.68-7.05,28.29-7.14-4.39-2.74-24.08-5.85-18.89-8.09,6.84-5.2,17.65-5.39,27-4.59-3-.46-18.26-4.95-10.6-.94.73-5.88,9.94-4.69,5.86-.94,15.13-47.09,8.66-33.61,16,21.16,20.67-4.63,26.63,32.05-1.22,4.93-7.34,2.4,1.29,1.38,4.72-17.48,18-23,16.65-30.2,42.47,12.88-17.32,27.78,3.32,41.63-10.56-10.36,2.3-20.52-1.41-30.92,0,4.8-.88,6.91-5.57,10.06-8.83,3-2.39-4.23,0-6-.43,10-9.13,30.39-2.6,34.82-19.16.46-1.42-.68-7.31,1.14-2.52.48,8.77,5.41.06,8.19-3.43,1-1,1-6.27,2.09-3,.3,1,.24,5.23,1.46,3.21,2.89-3.76,6.35-7.59,7.44-12.3C249.76,234.14,248.7,228.78,249,222Z"/><path class="cls-2" d="M117.87,298.63c-7.61-27.06-13.23-24.18-30.44-42.91-3.35-13.22,0-4.72,6-.7,6.88,4.44,12.25,10.8,18.17,16.39-1.31-20.49,28.44-21.88-1.62-23.53C88.63,244,93.55,246,80.82,228.2c-1,3.69.31,9.09-2.17,12-1.19,1.77-.93.73-.92-.74.7-9.31,1.79-18.95-5.63-25.69-2.14-4.24.88,16.38-5.49,19.39a28.25,28.25,0,0,0-7-28.17c.91,2.18-3,27.22-3.74,17.58,1.15-9.24-2.63-17.89-6.89-23.68.61,19.43-9.35,37.28,7,55.76.94-1.77.23-3.84,1.53-5.39,1.7,6.13,9,17.84,10.23,6.31.18,14.54,17.08,17.94,29.38,18.88,16.8,11.68-13.29-5.83,7.17,12.48,6.41,2-1.92,1.14-4.4.73-4.91-.62-9.55.94-14.46,1.25-3.41,1.2-14.14-3.19-5.44,1.82C93.06,298.77,107.79,283.15,117.87,298.63Z"/><path class="cls-1" d="M120.83,329.36c-13.1,22.3-13.89,55,9,71.22-9.09-26.4-16.68-63.92,5.45-92.63-2.82,4-6.45,7.48-9,11.77-.06-.61,1.3-1.73.74-1.82C124.77,320.79,123.42,327.32,120.83,329.36Z"/><path class="cls-1" d="M131.56,343c14.64,33.7,32.88,23.29,33.84,74.08,6.93-15.88,6.16-44.22-5.5-54.86,1,5.13,5,12.16,4.21,17.1C156.67,364.64,139.75,357.7,131.56,343Z"/><path class="cls-1" d="M210.3,295.35C203,297,197,293.66,190,293.79,195,303.45,202.81,299.09,210.3,295.35Z"/><path class="cls-1" d="M85.69,295.81c6.41,3,13.19,7.52,18.94.94.44-1.39,2.6-2.92,0-2.7C98.13,295.19,92.5,297.06,85.69,295.81Z"/><path class="cls-1" d="M120.82,329.35c.18-.12.13-.35.36-.57A.52.52,0,0,0,120.82,329.35Z"/><path class="cls-1" d="M49.74,200c0,.14.15.18.14,0S49.75,199.82,49.74,200Z"/><path class="cls-1" d="M151.64,403.92c-1.08-15.45-15.56-29.61-2.72-20.77,4.94,4.11,4.85,4.33,1.45-1.08-4.67-8-15.55-13.89-18.15-21.46-1-.63-2.89-5.86-3.17-4.57C125,373,146.72,388.12,151.64,403.92Z"/><path class="cls-1" d="M154.56,286.06c-2.33,10.69,7.47-10.06,6.5-14.91,6.58,3.71,4.81,20.74,7.78,6.74,2.33-7.19-7.05-32-3.13-11-.69,1.51-7.79-12.48-6.52-5.11-.92-1.23-.14,2-.09,2.71.86,5.81-4.76-6.69-5.07-4.31C156.55,269.76,157.35,276.49,154.56,286.06Z"/><path class="cls-1" d="M141.07,241.35c.12-1.06-.69-5.57-.76-2.49-2.58,10.8-9.52,15-7.05,27.93.15,1.86.85-2.39,1.18-3.09,4.37-8.21,3.64-10.63,5.39.17C142.91,255.72,141.36,249.86,141.07,241.35Z"/></svg>